<?xml version="1.0" standalone="no"?>
<!DOCTYPE svg PUBLIC "-//W3C//DTD SVG 20010904//EN"
 "http://www.w3.org/TR/2001/REC-SVG-20010904/DTD/svg10.dtd">
<svg version="1.0" xmlns="http://www.w3.org/2000/svg"
 width="161.000000pt" height="198.000000pt" viewBox="0 0 161.000000 198.000000"
 preserveAspectRatio="xMidYMid meet">
<metadata>
Created by potrace 1.16, written by Peter Selinger 2001-2019
</metadata>
<g transform="translate(0.000000,198.000000) scale(0.100000,-0.100000)"
fill="#000000" stroke="none">
<path d="M349 1896 c-99 -26 -182 -97 -231 -195 l-23 -46 0 -665 0 -665 34
-63 c41 -75 94 -125 170 -161 l56 -26 370 0 370 0 0 915 0 915 -350 2 c-252 1
-363 -2 -396 -11z m741 -906 l0 -901 -372 3 -373 3 -57 28 c-68 33 -121 90
-157 166 l-26 56 0 645 0 645 33 67 c39 79 101 139 176 167 47 19 77 20 414
20 l362 1 0 -900z"/>
<path d="M380 1761 c-85 -27 -135 -83 -146 -163 -8 -57 8 -109 49 -155 39 -44
82 -63 142 -63 60 0 103 19 142 63 107 122 38 301 -124 321 -21 3 -49 2 -63
-3z m130 -31 c132 -67 124 -258 -15 -321 -49 -23 -84 -24 -133 -4 -73 31 -114
89 -115 164 -2 136 141 223 263 161z"/>
<path d="M365 1711 c-62 -27 -102 -111 -84 -176 40 -144 230 -152 284 -11 22
56 8 109 -39 156 -30 28 -44 34 -88 37 -29 1 -62 -1 -73 -6z m108 -15 c49 -21
79 -59 84 -109 9 -81 -49 -147 -132 -147 -147 0 -185 196 -50 256 39 17 58 17
98 0z"/>
<path d="M1123 1899 c-10 -10 -13 -206 -13 -910 0 -783 2 -898 15 -909 22 -18
118 -4 184 28 71 33 136 98 169 170 l27 57 0 655 0 655 -33 67 c-37 76 -89
126 -169 163 -63 30 -162 43 -180 24z m184 -40 c99 -48 167 -144 184 -261 11
-82 11 -1134 0 -1216 -24 -163 -142 -277 -298 -290 l-63 -5 0 903 0 903 64 -5
c38 -3 85 -15 113 -29z"/>
</g>
</svg>
