<?xml version="1.0" standalone="no"?>
<!DOCTYPE svg PUBLIC "-//W3C//DTD SVG 20010904//EN"
 "http://www.w3.org/TR/2001/REC-SVG-20010904/DTD/svg10.dtd">
<svg version="1.0" xmlns="http://www.w3.org/2000/svg"
 width="2658.000000pt" height="1574.000000pt" viewBox="0 0 2658.000000 1574.000000"
 preserveAspectRatio="xMidYMid meet">
<metadata>
Created by potrace 1.16, written by Peter Selinger 2001-2019
</metadata>
<g transform="translate(0.000000,1574.000000) scale(0.100000,-0.100000)"
fill="#000000" stroke="none">
<path d="M8373 15289 c-258 -30 -511 -120 -713 -254 -107 -71 -294 -260 -370
-374 -106 -159 -189 -350 -258 -591 l-10 -35 -1 36 c-1 26 -15 56 -50 106
-168 239 -377 255 -653 51 -99 -73 -276 -244 -435 -420 -64 -71 -119 -128
-122 -128 -3 0 -14 28 -24 63 -10 34 -38 104 -63 155 -104 215 -266 309 -464
268 -140 -30 -301 -124 -453 -266 -84 -79 -182 -196 -573 -690 -455 -574 -787
-1007 -944 -1230 -40 -58 -105 -139 -143 -180 -145 -156 -335 -430 -605 -870
-83 -135 -171 -276 -195 -315 -57 -88 -257 -304 -467 -505 -92 -86 -169 -168
-176 -186 -21 -51 -32 -110 -44 -249 -19 -229 -47 -357 -110 -513 -85 -213
-192 -686 -355 -1577 -78 -427 -193 -1106 -230 -1365 -33 -221 -46 -263 -212
-675 -224 -555 -281 -734 -302 -955 -22 -218 -132 -804 -316 -1681 l-85 -404
1 -150 c1 -105 4 -140 10 -115 4 19 53 247 108 505 190 894 317 1557 341 1775
28 267 77 433 248 855 236 584 233 576 272 830 104 676 244 1469 371 2095 98
478 147 673 220 858 54 139 84 281 104 482 25 265 3 226 252 472 260 257 380
390 438 483 23 39 105 171 180 295 264 430 455 705 600 861 44 47 107 126 140
174 108 159 487 658 812 1068 l94 118 71 -66 c132 -122 292 -181 425 -156 180
33 316 153 520 462 198 299 263 451 235 547 -22 74 -116 134 -255 164 -57 12
-51 19 32 38 164 38 301 -43 395 -233 46 -93 102 -268 93 -290 -19 -49 -241
-313 -485 -575 -333 -359 -1445 -1460 -2062 -2042 -338 -319 -395 -384 -569
-657 -180 -282 -400 -686 -381 -698 7 -4 15 -3 20 1 4 5 54 95 110 199 114
212 219 389 321 543 154 232 203 286 559 622 865 816 1928 1882 2279 2288
l106 122 25 -32 c70 -92 146 -160 219 -196 69 -34 81 -37 160 -36 158 1 256
58 467 268 236 237 354 418 362 558 4 59 0 76 -26 131 -59 128 -137 187 -244
187 l-63 1 30 16 c47 25 156 29 213 8 54 -21 143 -101 177 -160 22 -38 24 -53
30 -296 4 -141 4 -460 0 -710 l-7 -454 -211 -240 c-456 -522 -784 -869 -901
-956 -109 -80 -289 -313 -602 -779 -94 -140 -194 -291 -222 -335 l-51 -80 19
-85 c17 -79 17 -86 2 -101 -16 -15 -737 -606 -1113 -911 -215 -174 -254 -223
-449 -563 -112 -195 -176 -295 -267 -420 -116 -161 -269 -473 -633 -1293 -220
-496 -223 -503 -276 -551 -92 -84 -293 -192 -589 -317 -82 -35 -151 -68 -154
-75 -6 -18 34 -5 190 61 289 124 520 253 596 332 34 35 36 40 277 586 381 860
493 1082 686 1351 32 46 114 178 182 295 208 358 243 405 423 550 55 44 333
271 618 504 284 232 524 421 531 420 8 -2 117 92 242 208 543 500 917 818
1132 962 104 70 282 176 285 171 1 -2 22 -44 46 -94 34 -68 62 -107 115 -161
95 -95 152 -118 281 -112 76 3 103 10 174 41 276 120 630 422 776 663 35 57
36 61 30 127 -10 104 -30 161 -70 196 -52 46 -107 55 -225 38 l-55 -8 47 31
c104 70 292 76 382 13 83 -58 114 -196 86 -384 -31 -213 -157 -575 -305 -874
-284 -577 -701 -1023 -1218 -1305 -58 -31 -93 -60 -135 -109 -95 -110 -445
-549 -667 -836 -319 -413 -401 -513 -490 -600 l-81 -80 -118 -415 c-299 -1049
-487 -1640 -542 -1701 -12 -14 -13 -27 -3 -90 24 -155 -5 -572 -66 -949 -44
-268 -66 -342 -166 -558 -92 -198 -173 -391 -224 -535 -26 -72 -35 -84 -109
-153 -127 -118 -374 -278 -625 -403 -56 -29 -80 -46 -73 -53 11 -11 68 16 262
124 168 94 303 184 412 276 73 60 90 70 85 51 -32 -117 -50 -237 -51 -349 -2
-253 51 -354 278 -524 194 -146 373 -252 779 -461 137 -71 265 -141 286 -156
21 -15 92 -92 158 -170 274 -327 520 -513 769 -581 122 -33 318 -31 437 5 200
61 641 311 1432 812 782 495 850 535 951 563 83 24 143 48 165 67 14 14 99 1
745 -110 401 -69 875 -150 1054 -181 179 -30 359 -64 400 -75 99 -27 188 -70
224 -108 24 -25 27 -35 22 -64 -7 -36 -75 -138 -143 -216 l-39 -44 -74 43
c-112 65 -251 128 -384 172 -112 38 -126 40 -196 34 -98 -8 -375 -65 -514
-106 -272 -79 -443 -187 -477 -299 -26 -87 37 -242 147 -360 121 -131 281
-218 445 -244 l80 -12 -588 -391 c-566 -377 -737 -490 -781 -513 -42 -22 -230
28 -341 92 -69 39 -192 155 -241 227 -112 165 -187 383 -214 619 -8 70 -16
106 -25 109 -29 10 18 -285 71 -442 116 -347 325 -556 621 -621 68 -15 76 -19
60 -30 -10 -7 -92 -58 -183 -115 -91 -56 -167 -104 -169 -106 -2 -2 25 -4 60
-4 l64 0 255 162 c377 241 1758 1161 1885 1258 352 267 649 561 727 720 32 64
30 117 -6 164 l-29 38 29 -6 c65 -13 3109 -530 4333 -735 425 -72 775 -132
777 -133 1 -2 117 -194 257 -428 300 -503 554 -945 572 -998 11 -32 17 -37 49
-40 l35 -3 -13 45 c-22 71 -233 444 -629 1105 -97 162 -174 297 -172 299 3 3
295 -43 651 -102 l646 -106 202 -99 c548 -266 1058 -552 1212 -677 61 -50 63
-87 18 -292 -33 -147 -37 -188 -17 -169 4 4 23 82 44 173 21 91 44 173 52 182
8 10 20 44 27 77 23 116 132 561 149 610 10 28 88 223 173 435 317 784 526
1358 617 1690 11 41 77 408 146 815 431 2538 569 3262 710 3725 219 719 662
1886 784 2063 137 199 423 400 740 519 57 21 105 37 107 36 2 -2 -12 -52 -31
-111 -125 -394 -137 -734 -34 -954 105 -222 433 -523 724 -665 164 -79 239
-82 268 -9 53 131 167 632 200 876 12 92 5 -56 -9 -175 -27 -234 -74 -455
-161 -750 -77 -264 -129 -392 -206 -510 -91 -139 -199 -359 -242 -492 -65
-200 -77 -328 -50 -548 7 -63 11 -118 9 -122 -3 -4 11 -121 31 -260 64 -465
91 -803 82 -1063 -8 -231 -133 -1307 -242 -2074 -43 -303 -60 -584 -52 -881 9
-335 29 -487 68 -529 51 -54 127 -5 189 123 140 290 365 1194 629 2536 97 491
135 611 221 701 l39 41 -49 64 c-161 209 -265 507 -302 859 -7 70 -16 113 -22
112 -22 -4 -9 343 17 493 21 119 22 173 3 142 -25 -41 -67 -449 -63 -607 l2
-60 -40 -19 c-23 -11 -71 -21 -110 -24 -92 -6 -158 21 -218 88 -74 83 -83 110
-111 363 -14 126 -26 269 -26 318 0 168 53 354 165 574 95 188 171 303 204
309 170 34 1016 55 1131 28 66 -15 307 -157 466 -274 124 -92 332 -296 417
-410 32 -43 114 -171 183 -284 168 -278 154 -261 154 -187 0 61 -2 65 -108
241 -132 219 -227 346 -351 472 -156 157 -298 264 -554 416 -177 106 -193 109
-547 108 -229 -1 -720 -26 -757 -39 -7 -2 -13 -1 -13 4 0 5 31 102 69 217 164
495 242 939 228 1294 -8 196 -31 304 -93 430 -117 238 -349 369 -656 371
l-118 1 0 137 c0 75 7 474 15 886 32 1642 37 2106 25 2214 -52 470 -300 765
-739 878 -93 23 -191 29 -2891 163 -11825 589 -11503 574 -11717 549z m3631
-214 c10058 -499 9546 -473 9616 -494 292 -86 537 -269 755 -561 222 -299 420
-742 525 -1175 l21 -90 -55 -1292 c-31 -711 -56 -1297 -56 -1302 0 -5 -37 -36
-83 -69 -92 -67 -210 -180 -267 -258 -92 -123 -247 -492 -487 -1154 -265 -731
-420 -1247 -499 -1667 -10 -51 -21 -93 -25 -93 -3 0 -12 35 -19 77 -23 142
-109 467 -175 662 -142 415 -309 754 -550 1116 -494 741 -1161 1275 -1900
1520 -328 109 -528 140 -905 139 -361 0 -603 -33 -915 -124 -916 -268 -1633
-937 -2024 -1889 -139 -337 -248 -769 -290 -1151 -49 -435 -44 -922 15 -1320
139 -948 554 -1867 1157 -2565 124 -144 396 -409 522 -511 513 -410 1022 -634
1592 -700 259 -31 648 -7 938 57 435 96 868 305 1227 591 135 108 382 355 492
493 48 61 130 173 182 250 53 77 93 129 90 115 -3 -14 -20 -108 -36 -210 -39
-232 -69 -345 -169 -640 -127 -377 -304 -841 -558 -1468 -100 -246 -131 -312
-145 -312 -51 0 -3507 573 -5688 943 l-245 42 -3 95 c-2 52 6 540 18 1085 11
545 20 1023 20 1063 0 65 2 72 20 72 26 0 26 16 1 23 -19 5 -20 13 -15 183 3
99 36 1731 74 3629 55 2719 67 3452 57 3461 -8 8 -1078 100 -2992 259 -2957
245 -2980 247 -3005 270 -77 73 -269 90 -411 36 -48 -19 -52 -18 -386 10 -186
16 -350 29 -365 29 l-28 0 0 683 c0 543 3 708 15 811 85 730 433 1216 1004
1405 157 52 373 86 560 90 41 0 1569 -73 3395 -164z m10271 -510 l499 -25 56
-37 c203 -135 431 -489 475 -739 41 -236 0 -771 -81 -1048 -57 -198 -82 -525
-124 -1626 -16 -436 -31 -794 -32 -795 -2 -2 -37 -19 -77 -40 -41 -20 -92 -48
-113 -61 l-38 -24 0 62 c1 35 25 619 54 1298 l53 1235 -38 145 c-154 589 -447
1127 -767 1407 -135 117 -244 185 -422 261 -23 10 -22 11 16 11 22 1 265 -10
539 -24z m707 -59 c284 -72 494 -249 597 -503 70 -170 84 -300 79 -699 l-5
-309 -35 -130 c-19 -71 -58 -204 -86 -295 -27 -91 -57 -208 -66 -260 -15 -91
-31 -577 -52 -1562 -4 -174 -10 -321 -13 -326 -3 -4 -51 -23 -106 -40 -55 -18
-121 -41 -147 -52 l-48 -20 0 53 c0 28 11 347 25 707 43 1154 59 1359 130
1660 80 336 114 737 84 985 -28 232 -172 500 -380 708 -69 69 -101 107 -89
107 9 0 60 -11 112 -24z m-16337 -285 c53 -24 110 -88 146 -165 35 -74 36
-110 5 -197 -47 -133 -165 -288 -379 -496 -117 -113 -148 -137 -223 -175 -85
-42 -91 -43 -183 -43 -85 0 -102 3 -149 27 -29 15 -71 42 -94 60 -41 33 -138
153 -138 171 0 14 50 75 185 227 150 169 276 294 430 426 193 167 300 211 400
165z m-1406 -200 c81 -25 148 -66 166 -101 49 -94 -6 -233 -220 -555 -127
-190 -194 -274 -275 -340 -205 -170 -445 -149 -648 57 l-52 54 264 331 c278
348 349 421 506 524 69 45 79 49 136 49 34 0 89 -8 123 -19z m18396 -2176 c-9
-522 -20 -1049 -23 -1170 l-7 -219 -85 -17 c-47 -9 -86 -16 -88 -14 -3 3 36
1561 43 1710 7 154 31 269 105 507 33 106 61 200 62 208 9 90 7 -211 -7 -1005z
m-16687 -181 c-15 -13 -254 -162 -453 -282 -161 -97 -334 -225 -555 -409 -207
-173 -641 -560 -846 -755 l-41 -39 -11 41 -10 41 115 177 c299 461 550 803
676 922 328 311 527 522 936 989 l196 223 3 -448 c2 -350 -1 -451 -10 -460z
m466 531 c171 -14 311 -27 312 -28 4 -4 -677 -442 -692 -445 -11 -3 -14 22
-14 131 0 73 3 188 6 254 l7 121 36 -4 c20 -3 175 -16 345 -29z m1330 -110
c232 -19 427 -38 435 -40 12 -5 13 -169 7 -1142 -4 -626 -8 -1138 -9 -1139 -2
-1 -1801 193 -1804 195 -1 0 24 27 54 59 200 206 397 472 508 685 40 77 55 93
55 59 0 -40 33 -142 70 -217 68 -138 158 -220 291 -265 54 -19 80 -21 166 -18
93 4 109 8 175 41 210 103 320 328 320 652 0 87 -5 167 -15 210 -52 241 -181
409 -357 466 -86 27 -212 28 -293 1 -51 -17 -57 -18 -53 -3 46 151 45 352 -3
451 l-19 40 26 0 c14 0 215 -16 446 -35z m-756 -33 c38 -28 61 -85 68 -176 8
-87 -4 -114 -98 -232 -246 -310 -665 -594 -876 -594 -100 0 -213 64 -287 162
-51 68 -109 183 -102 202 3 7 58 46 124 86 65 41 267 169 448 286 182 116 349
221 372 233 123 62 288 77 351 33z m2447 -108 c638 -53 1161 -97 1163 -99 4
-4 -20 -2329 -24 -2334 -3 -3 -2248 233 -2326 245 l-38 6 0 1139 0 1139 33 0
c17 0 554 -43 1192 -96z m2508 -208 c687 -57 1251 -107 1254 -110 8 -8 -38
-2379 -46 -2387 -7 -8 -2533 260 -2543 270 -5 4 16 2316 21 2329 3 6 152 -5
1314 -102z m-4338 -121 c171 -44 297 -190 357 -410 31 -116 31 -384 0 -499
-35 -125 -85 -220 -155 -290 -74 -72 -148 -111 -246 -127 -242 -40 -460 127
-531 407 -29 113 -27 137 29 255 62 131 139 337 187 502 l38 127 43 16 c96 37
185 43 278 19z m15398 -1245 c176 -44 312 -152 387 -303 40 -81 80 -216 80
-266 l-1 -26 -14 25 c-8 14 -35 77 -60 142 -25 64 -63 140 -85 170 -76 106
-200 178 -370 215 -68 14 -130 18 -312 18 -125 0 -215 3 -200 8 24 6 153 29
237 41 65 10 262 -4 338 -24z m-5973 -5 c0 -2 -11 -38 -25 -78 -38 -115 -54
-230 -71 -522 -18 -301 -11 -487 26 -710 11 -66 20 -128 20 -137 0 -16 -12
-18 -114 -18 -746 0 -1408 -426 -1751 -1125 -198 -406 -292 -907 -264 -1419
18 -350 104 -730 235 -1039 22 -53 29 -79 21 -82 -7 -2 -59 -18 -116 -35 -293
-89 -611 -243 -831 -403 -35 -26 -67 -47 -71 -47 -4 0 -9 8 -12 18 -3 9 -28
78 -57 152 -232 605 -345 1317 -312 1962 13 262 31 424 68 643 115 667 370
1254 753 1735 98 123 329 354 456 455 441 352 992 577 1565 639 119 13 480 21
480 11z m283 -21 c948 -136 1851 -795 2455 -1791 104 -171 273 -513 345 -698
132 -338 232 -712 282 -1052 l16 -113 -80 -442 c-90 -493 -236 -1330 -336
-1923 -67 -395 -85 -475 -111 -475 -24 0 -236 114 -310 166 -142 100 -213 161
-374 323 -189 189 -365 401 -357 428 3 10 32 77 65 148 178 386 262 791 262
1266 0 303 -34 552 -115 835 -272 951 -988 1688 -1802 1853 -55 12 -116 21
-135 21 -52 0 -64 16 -82 115 -46 251 -55 476 -32 816 16 246 31 348 71 463
13 38 22 74 18 79 -6 10 58 5 220 -19z m5482 -24 c139 -13 222 -33 310 -75
131 -62 206 -151 264 -310 17 -47 43 -108 58 -137 27 -51 28 -59 26 -183 -1
-88 -9 -178 -27 -279 -56 -324 -166 -750 -198 -770 -46 -28 -230 49 -408 171
-276 191 -482 422 -547 616 -26 79 -28 90 -27 282 0 178 3 214 27 325 14 69
42 175 62 237 l35 111 73 6 c39 4 90 8 112 9 86 7 134 7 240 -3z m-15530 -486
c501 -53 911 -98 913 -99 1 -1 1 -512 0 -1136 l-3 -1134 -1075 137 c-591 75
-1076 137 -1077 137 -2 1 -3 436 -3 969 l1 967 97 72 c53 40 124 98 157 128
33 30 65 54 70 55 6 0 420 -43 920 -96z m2144 -229 c640 -68 1164 -125 1165
-127 4 -5 -22 -2310 -26 -2312 -2 -2 -525 64 -1163 145 -638 82 -1163 148
-1167 149 -5 0 -8 511 -8 1135 0 1074 1 1135 18 1135 9 0 541 -56 1181 -125z
m-3456 -2312 c4 -1485 10 -2382 17 -2478 38 -547 198 -969 495 -1308 223 -256
572 -470 918 -562 51 -14 238 -50 417 -80 179 -31 337 -58 353 -61 22 -4 27
-11 27 -34 0 -24 -9 -32 -77 -67 -105 -53 -214 -120 -711 -435 -987 -626
-1405 -862 -1608 -909 -357 -82 -720 104 -1089 556 -149 183 -152 185 -462
345 -439 227 -641 348 -837 504 -96 75 -140 134 -172 226 -30 88 -26 299 10
453 48 208 126 417 284 758 98 211 118 273 156 479 69 380 111 863 88 1034 -8
66 -8 71 30 158 82 190 225 650 475 1523 l145 510 87 90 c96 99 185 209 496
610 208 268 503 639 627 788 56 67 79 86 178 142 63 36 119 70 124 75 6 6 13
10 17 10 3 0 9 -1047 12 -2327z m5952 2046 c682 -72 1242 -133 1245 -136 4 -4
-40 -2356 -45 -2361 -2 -3 -2425 302 -2494 314 l-34 5 7 647 c3 356 9 878 13
1160 l6 512 31 -5 c17 -3 589 -64 1271 -136z m5150 -509 c695 -66 1342 -554
1724 -1300 288 -561 386 -1181 291 -1832 -108 -738 -481 -1350 -1022 -1676
-372 -224 -847 -309 -1257 -226 -258 52 -542 189 -791 382 -105 82 -312 288
-404 402 -259 324 -468 739 -576 1145 -77 288 -103 488 -104 790 -1 233 9 359
44 560 134 771 579 1367 1208 1619 286 115 599 163 887 136z m-9956 -1255
c585 -74 1067 -135 1072 -135 5 0 9 -466 9 -1150 0 -672 -4 -1150 -9 -1150
-24 0 -2133 330 -2142 335 -11 8 -12 2235 -1 2235 5 0 487 -61 1071 -135z
m2291 -291 c635 -81 1157 -148 1159 -150 2 -2 -2 -448 -8 -991 -6 -543 -11
-1072 -11 -1175 l0 -188 -23 0 c-13 0 -531 79 -1152 175 -620 96 -1131 175
-1136 175 -5 0 -9 485 -9 1150 0 913 3 1150 13 1150 6 0 532 -65 1167 -146z
m2463 -313 c686 -87 1249 -160 1251 -162 3 -4 -45 -2422 -48 -2426 -2 -3
-2497 385 -2501 389 -3 2 21 2347 24 2356 2 5 58 -2 1274 -157z m11200 -593
c69 -35 202 -36 291 -2 12 5 16 0 16 -19 0 -53 51 -299 85 -413 42 -137 121
-309 189 -407 l47 -68 -40 -61 c-69 -106 -112 -263 -207 -753 -24 -126 -46
-239 -49 -251 -3 -14 -68 -56 -217 -141 -229 -130 -318 -177 -324 -170 -2 2
16 168 41 368 114 927 128 1120 106 1444 -11 160 -33 398 -48 510 l-6 50 37
-32 c20 -18 56 -43 79 -55z m-15955 -1098 c570 -88 1047 -163 1060 -165 l22
-5 0 -1120 c0 -616 -3 -1120 -6 -1120 -18 0 -667 113 -722 126 -175 41 -428
150 -587 254 -379 249 -641 631 -759 1105 -56 229 -75 423 -76 810 -2 307 -3
275 15 275 8 0 482 -72 1053 -160z m8098 -202 c328 -653 882 -1153 1460 -1317
289 -82 625 -82 938 -1 460 119 862 415 1139 838 33 50 63 92 66 91 3 0 36
-39 73 -87 258 -335 597 -631 883 -769 52 -25 95 -50 95 -55 0 -16 -181 -286
-254 -378 -298 -378 -642 -661 -1046 -864 -409 -204 -773 -293 -1250 -303
-325 -7 -531 19 -808 103 -863 261 -1648 961 -2185 1949 -71 130 -187 374
-187 392 0 23 263 190 430 274 183 92 516 217 582 219 13 0 32 -28 64 -92z
m-5816 -154 c624 -96 1138 -178 1141 -182 6 -7 -16 -2260 -22 -2266 -2 -3
-382 61 -844 140 -462 79 -975 167 -1139 195 -165 27 -303 52 -308 55 -8 5 -8
1358 0 1970 3 250 4 272 20 268 9 -2 528 -83 1152 -180z m2425 -375 c682 -106
1243 -195 1246 -198 4 -3 -4 -505 -17 -1116 -13 -610 -23 -1129 -24 -1152 0
-41 -1 -42 -27 -37 -30 5 -2114 360 -2327 396 l-129 22 7 590 c15 1387 19
1686 25 1686 3 0 564 -86 1246 -191z m11545 -283 c0 -24 -158 -700 -241 -1031
-153 -609 -298 -1069 -347 -1099 -7 -4 -16 10 -24 36 -20 65 -16 609 5 868 30
350 69 708 98 897 l12 73 121 64 c66 35 175 95 241 134 66 39 123 71 128 71 4
1 7 -5 7 -13z m-13165 -2127 c120 -39 373 -157 423 -197 l23 -18 -98 -95
c-176 -170 -432 -374 -678 -540 l-110 -74 -95 0 c-107 1 -198 27 -297 87 -171
104 -305 280 -320 420 -5 49 -2 63 21 101 61 105 257 200 571 277 112 28 374
77 417 79 9 1 74 -18 143 -40z m8165 -1064 c338 -54 617 -100 619 -102 6 -4
-100 -446 -109 -456 -4 -5 -37 14 -72 41 -66 50 -255 166 -425 260 -131 73
-652 342 -663 342 -5 0 -12 5 -16 12 -5 8 1 9 22 6 16 -3 306 -50 644 -103z"/>
<path d="M8405 14227 c-74 -25 -120 -55 -178 -115 -137 -144 -193 -404 -131
-612 42 -145 141 -272 250 -326 52 -25 70 -29 149 -29 81 0 96 3 151 32 114
60 210 191 251 343 23 86 23 252 0 340 -57 216 -211 367 -384 376 -40 2 -85
-2 -108 -9z m223 -47 c294 -139 355 -652 107 -905 -83 -85 -191 -122 -297
-103 -74 14 -125 43 -188 107 -99 101 -150 240 -150 408 0 115 13 178 56 272
40 88 89 149 150 192 63 43 109 57 189 58 58 1 81 -4 133 -29z"/>
<path d="M10756 14090 c-118 -42 -201 -121 -267 -254 -48 -98 -69 -192 -69
-311 0 -119 21 -213 69 -311 207 -418 682 -338 808 136 23 87 23 262 0 350
-77 295 -318 469 -541 390z m259 -42 c111 -58 188 -153 239 -298 29 -79 31
-94 30 -225 0 -127 -2 -147 -27 -219 -34 -97 -100 -201 -158 -248 -75 -61
-125 -81 -214 -86 -117 -6 -178 19 -270 112 -116 117 -168 254 -168 441 0 187
52 324 168 441 92 93 145 115 265 111 68 -3 95 -9 135 -29z"/>
<path d="M13542 13729 c-46 -9 -98 -62 -117 -117 -22 -67 -22 -553 0 -572 35
-29 40 1 45 273 5 286 10 310 65 335 39 18 57 15 108 -19 66 -44 100 -24 61
36 -32 50 -102 77 -162 64z"/>
<path d="M13825 13677 c-3 -6 -4 -162 -3 -346 3 -307 4 -335 21 -345 14 -8 20
-8 27 4 15 23 13 673 -2 688 -16 16 -37 15 -43 -1z"/>
<path d="M14162 13660 c-47 -11 -108 -74 -127 -130 -13 -38 -15 -94 -13 -306
3 -257 3 -259 25 -262 30 -4 33 17 32 278 -2 245 3 272 56 320 20 18 37 25 68
25 53 -1 91 -25 125 -84 l27 -46 3 -263 c3 -227 6 -264 19 -269 9 -4 22 2 30
13 22 29 13 500 -11 565 -40 109 -144 180 -234 159z"/>
<path d="M14691 13600 c-52 -12 -83 -41 -116 -105 -30 -60 -30 -61 -30 -231
l0 -171 35 -69 c59 -115 159 -159 253 -111 l47 24 0 -63 c0 -99 -31 -155 -97
-173 -46 -13 -93 2 -139 44 -47 43 -64 45 -64 6 0 -59 95 -131 173 -131 78 0
155 60 176 137 7 23 11 157 11 329 0 231 -3 301 -15 342 -36 118 -138 194
-234 172z m100 -92 c27 -15 47 -37 64 -72 23 -47 25 -60 25 -203 0 -134 -3
-159 -20 -193 -23 -46 -64 -70 -116 -70 -30 0 -45 8 -79 43 -56 55 -69 115
-63 286 5 142 17 179 71 211 41 26 70 25 118 -2z"/>
<path d="M20447 13566 c-181 -65 -319 -221 -377 -426 -23 -85 -29 -252 -11
-332 51 -226 188 -392 386 -468 80 -31 233 -34 315 -6 233 79 391 295 416 569
17 186 -55 389 -185 522 -113 116 -205 157 -366 162 -97 3 -118 1 -178 -21z
m327 -26 c82 -31 173 -97 229 -166 210 -258 193 -652 -37 -879 -79 -78 -143
-117 -231 -140 -171 -44 -344 5 -476 135 -338 333 -196 954 244 1066 72 19
198 11 271 -16z"/>
<path d="M20031 10528 c-63 -43 -76 -70 -76 -158 0 -72 2 -81 31 -117 80 -99
222 -72 270 52 28 75 2 174 -59 217 -46 33 -123 36 -166 6z m149 -26 c59 -43
77 -140 40 -212 -39 -76 -132 -94 -194 -39 -58 50 -71 128 -33 199 40 76 122
99 187 52z"/>
<path d="M21220 10534 c-195 -52 -358 -191 -456 -389 -66 -135 -86 -223 -86
-385 0 -157 18 -241 80 -373 117 -247 328 -398 578 -414 197 -12 379 65 522
222 220 240 274 619 133 930 -93 204 -277 364 -473 410 -79 19 -226 18 -298
-1z m299 -25 c124 -30 272 -130 356 -241 56 -73 118 -198 141 -283 25 -92 30
-294 10 -395 -57 -281 -260 -511 -505 -575 -121 -31 -280 -17 -397 34 -176 78
-335 272 -394 481 -27 95 -36 261 -21 359 60 381 362 657 695 635 38 -2 89 -9
115 -15z"/>
<path d="M10723 11445 c-140 -31 -270 -138 -341 -285 -72 -145 -86 -216 -86
-430 0 -213 14 -285 84 -427 94 -192 248 -294 445 -295 110 -1 182 19 262 71
144 95 240 263 274 481 17 112 7 335 -20 439 -64 242 -213 405 -408 446 -82
18 -129 18 -210 0z m222 -29 c167 -44 287 -169 352 -367 105 -315 41 -703
-147 -887 -144 -141 -364 -172 -542 -75 -69 37 -159 136 -202 220 -95 190
-118 474 -56 702 58 210 198 367 365 407 67 17 169 17 230 0z"/>
<path d="M9725 11227 c-47 -27 -85 -79 -85 -118 0 -27 3 -29 39 -29 35 0 39 3
44 30 7 35 57 70 100 70 84 0 129 -78 94 -163 -8 -18 -78 -108 -156 -201 -124
-148 -142 -173 -139 -200 l3 -31 193 -3 192 -2 0 40 0 39 -136 3 -136 3 116
140 c142 172 160 205 154 286 -5 69 -26 103 -84 136 -54 31 -144 31 -199 0z"/>
<path d="M13227 11219 c-215 -25 -389 -201 -457 -464 -27 -103 -38 -329 -21
-446 54 -372 283 -598 584 -576 235 17 411 183 489 463 19 69 22 104 22 279 0
230 -13 297 -84 442 -107 218 -304 330 -533 302z m164 -29 c137 -26 264 -126
338 -270 128 -245 132 -613 11 -866 -66 -138 -182 -243 -308 -280 -124 -36
-285 -13 -392 56 -193 124 -304 432 -271 753 14 142 32 211 82 315 107 223
313 334 540 292z"/>
<path d="M12135 10978 c-66 -24 -115 -82 -115 -137 0 -18 6 -21 40 -21 30 0
40 4 40 16 0 8 13 29 29 45 64 63 181 22 181 -65 0 -73 -46 -116 -124 -116
-35 0 -36 -1 -36 -39 l0 -39 56 -4 c74 -6 105 -36 112 -107 4 -47 2 -53 -31
-86 -30 -30 -42 -35 -82 -35 -40 0 -52 5 -81 34 -19 19 -34 41 -34 50 0 12
-10 16 -41 16 l-42 0 6 -35 c21 -128 201 -186 320 -103 89 63 89 238 1 290
l-32 19 40 37 c33 31 41 46 45 84 8 71 -3 112 -42 149 -55 54 -138 72 -210 47z"/>
<path d="M15438 8691 c-119 -39 -216 -124 -270 -237 -31 -66 -58 -176 -58
-239 0 -111 56 -264 126 -344 129 -148 356 -194 537 -109 167 80 267 249 267
453 0 206 -99 373 -269 454 -69 32 -85 36 -176 38 -77 2 -113 -1 -157 -16z
m218 -12 c293 -54 447 -396 309 -687 -126 -266 -467 -333 -679 -132 -195 184
-195 526 0 710 103 97 230 135 370 109z"/>
<path d="M20311 8109 c-132 -26 -251 -120 -314 -249 -126 -255 -28 -581 207
-691 292 -136 611 42 658 369 51 352 -222 636 -551 571z m273 -57 c162 -76
256 -234 256 -432 0 -198 -94 -355 -258 -433 -63 -30 -74 -32 -177 -32 -103 0
-114 2 -177 32 -120 57 -209 165 -244 297 -18 65 -18 206 0 271 33 123 113
229 215 284 80 42 121 51 227 47 78 -3 102 -8 158 -34z"/>
<path d="M8373 9325 c-232 -63 -379 -291 -399 -620 -16 -261 62 -505 204 -637
190 -176 466 -168 648 17 140 143 209 389 184 657 -35 369 -236 600 -520 597
-36 0 -89 -7 -117 -14z m253 -31 c233 -64 381 -357 361 -714 -16 -277 -124
-478 -304 -567 -63 -31 -84 -36 -165 -40 -74 -4 -106 -1 -154 15 -218 69 -348
283 -361 598 -12 266 47 461 179 596 114 118 276 159 444 112z"/>
<path d="M7556 9058 c-18 -40 -70 -151 -115 -246 -44 -95 -81 -186 -81 -203
l0 -29 140 0 140 0 0 -55 0 -55 44 0 45 0 3 53 c3 48 5 52 31 55 24 3 27 8 27
38 0 31 -3 34 -30 34 l-29 0 -3 98 -3 97 -40 0 -40 0 -3 -97 -3 -98 -89 0
c-50 0 -90 2 -90 5 0 3 45 106 101 228 56 122 103 228 106 235 4 8 -7 12 -36
12 l-42 0 -33 -72z"/>
<path d="M10648 9061 c-170 -56 -301 -212 -359 -427 -30 -112 -38 -368 -15
-484 57 -279 195 -448 412 -505 222 -58 453 60 562 285 53 110 81 226 89 370
11 214 -36 417 -129 557 -61 91 -113 136 -208 182 -70 34 -82 36 -185 38 -86
2 -122 -1 -167 -16z m244 -12 c87 -18 158 -59 228 -129 76 -76 118 -150 156
-275 23 -77 27 -113 31 -250 4 -135 2 -176 -16 -260 -42 -204 -147 -357 -298
-432 -62 -30 -85 -36 -163 -41 -202 -11 -355 79 -454 268 -145 277 -121 711
53 940 113 149 286 216 463 179z"/>
<path d="M9627 8864 c-4 -4 -7 -83 -7 -176 l0 -168 35 0 c20 0 49 10 72 26 30
20 46 25 76 21 72 -10 102 -64 95 -173 -3 -49 -9 -69 -28 -89 -49 -52 -144
-38 -170 26 -11 25 -18 29 -52 29 -40 0 -40 0 -34 -31 15 -77 88 -129 181
-129 69 0 125 27 154 73 62 101 39 291 -42 349 -40 29 -124 36 -168 14 -17 -9
-34 -16 -36 -16 -1 0 -3 36 -3 80 l0 80 131 0 130 0 -3 43 -3 42 -161 3 c-88
1 -163 -1 -167 -4z"/>
<path d="M13194 8840 c-220 -33 -390 -204 -455 -458 -62 -244 -34 -550 69
-747 43 -83 144 -188 218 -227 198 -106 440 -65 597 101 121 128 184 301 194
531 13 285 -58 512 -207 661 -108 109 -267 162 -416 139z m168 -31 c81 -17
153 -55 218 -115 144 -134 212 -327 211 -599 -1 -183 -24 -297 -85 -420 -74
-148 -162 -230 -295 -275 -76 -25 -211 -28 -284 -5 -168 51 -311 217 -362 419
-57 226 -39 508 43 688 109 238 322 356 554 307z"/>
<path d="M12081 8407 c-44 -107 -86 -216 -92 -243 -30 -132 80 -250 214 -230
99 15 157 87 157 196 0 116 -55 180 -160 188 -33 2 -60 8 -60 11 0 4 25 63 55
131 30 68 55 127 55 132 0 4 -20 8 -44 8 l-43 0 -82 -193z m160 -185 c57 -51
50 -165 -12 -197 -33 -17 -82 -19 -110 -5 -44 24 -64 126 -35 179 31 56 107
67 157 23z"/>
<path d="M17680 8580 c-518 -64 -949 -326 -1232 -750 -225 -337 -347 -751
-365 -1230 -24 -692 217 -1381 668 -1905 412 -479 937 -718 1464 -666 288 29
534 116 768 271 471 315 771 846 868 1540 21 149 18 585 -5 735 -88 569 -339
1079 -715 1456 -281 280 -593 456 -938 529 -113 24 -390 35 -513 20z m409
-436 c605 -89 1153 -646 1336 -1359 52 -203 69 -334 69 -540 0 -349 -65 -652
-199 -924 -247 -503 -664 -791 -1184 -817 -649 -33 -1278 510 -1540 1328 -160
501 -127 1085 85 1527 188 393 509 660 907 756 189 46 352 55 526 29z"/>
<path d="M8341 7045 c-176 -50 -299 -186 -367 -410 -26 -84 -28 -102 -28 -275
0 -173 2 -191 28 -275 88 -287 277 -441 521 -422 220 17 385 173 458 436 31
111 31 411 0 522 -58 208 -172 349 -331 409 -75 29 -207 36 -281 15z m311 -58
c130 -64 230 -197 272 -363 57 -222 38 -478 -50 -661 -49 -102 -127 -184 -222
-230 -75 -37 -78 -38 -191 -38 -110 0 -120 2 -184 32 -200 95 -309 318 -309
633 0 342 125 570 357 653 38 13 74 17 151 15 93 -3 106 -6 176 -41z"/>
<path d="M7360 6785 l0 -95 35 0 c35 0 35 0 35 44 0 76 0 76 111 76 54 0 99
-4 99 -8 0 -5 -45 -134 -100 -287 -55 -152 -100 -282 -100 -287 0 -5 19 -8 42
-6 l43 3 102 285 c66 185 102 300 103 328 l0 42 -185 0 -185 0 0 -95z"/>
<path d="M10643 6765 c-141 -38 -262 -142 -331 -285 -122 -253 -121 -614 3
-860 96 -191 251 -290 451 -290 350 0 572 344 534 824 -11 134 -39 237 -93
340 -48 93 -135 187 -213 228 -100 54 -244 71 -351 43z m242 -29 c79 -21 135
-54 200 -120 72 -72 107 -131 145 -246 72 -213 63 -494 -20 -693 -118 -281
-391 -399 -645 -278 -153 72 -258 232 -301 457 -25 134 -15 358 20 479 63 210
174 339 341 397 61 21 189 23 260 4z"/>
<path d="M9675 6606 c-55 -25 -105 -101 -105 -161 0 -37 25 -91 56 -120 l27
-25 -32 -29 c-58 -54 -75 -128 -46 -199 60 -142 250 -164 349 -40 57 72 43
190 -30 247 l-27 21 25 20 c51 39 72 123 47 187 -14 38 -57 83 -96 99 -41 18
-129 17 -168 0z m135 -71 c39 -20 63 -68 56 -110 -16 -84 -116 -117 -177 -58
-51 47 -43 128 15 164 38 23 67 24 106 4z m11 -298 c21 -14 39 -38 48 -63 13
-37 12 -44 -5 -80 -55 -113 -214 -81 -214 43 0 55 12 79 53 103 42 26 76 25
118 -3z"/>
<path d="M13151 6429 c-93 -12 -199 -65 -270 -136 -150 -151 -221 -377 -208
-663 18 -405 217 -667 522 -687 153 -10 275 36 385 146 114 115 183 285 199
494 43 533 -227 896 -628 846z m242 -49 c182 -68 314 -262 352 -520 65 -427
-103 -803 -394 -880 -70 -18 -196 -14 -273 10 -257 79 -409 400 -377 797 16
208 80 366 193 479 109 108 207 147 356 140 54 -3 106 -12 143 -26z"/>
<path d="M12025 6241 c-48 -22 -69 -44 -90 -94 -57 -137 39 -288 176 -275 21
2 39 3 39 2 0 0 -27 -62 -60 -137 -33 -76 -60 -140 -60 -143 0 -3 20 -4 46 -2
l45 3 55 130 c132 309 142 350 105 430 -22 48 -44 69 -94 90 -49 20 -113 19
-162 -4z m142 -73 c30 -15 56 -83 48 -126 -17 -89 -90 -126 -162 -82 -60 36
-69 141 -17 193 37 37 77 41 131 15z"/>
<path d="M7288 4865 c-3 -3 32 -74 78 -158 46 -84 84 -157 84 -162 0 -6 -36
-73 -81 -150 -44 -77 -87 -152 -95 -167 l-15 -28 46 0 45 0 76 130 c43 72 80
127 84 123 3 -4 39 -63 79 -130 l72 -123 45 0 c53 0 60 -21 -64 190 -47 80
-85 150 -85 155 0 6 39 78 86 162 47 83 83 154 79 157 -3 3 -22 6 -43 6 l-38
0 -63 -116 c-36 -64 -68 -116 -73 -116 -5 0 -37 52 -73 116 l-63 116 -38 0
c-21 0 -40 -2 -43 -5z"/>
<path d="M8300 4794 c-165 -44 -306 -206 -365 -419 -26 -93 -32 -360 -10 -466
49 -245 183 -421 363 -476 84 -26 219 -23 297 7 168 64 283 209 337 425 32
127 31 381 0 500 -62 230 -195 383 -377 431 -65 18 -175 17 -245 -2z m250 -26
c161 -48 282 -187 342 -393 20 -70 23 -102 23 -260 0 -206 -12 -267 -75 -400
-84 -176 -234 -275 -415 -275 -251 1 -432 194 -481 513 -42 271 28 557 172
701 115 114 283 159 434 114z"/>
<path d="M8249 4273 c-46 -39 -69 -96 -69 -176 0 -177 134 -265 237 -155 35
37 53 92 53 160 -1 116 -61 198 -145 198 -33 0 -51 -7 -76 -27z"/>
<path d="M17585 3476 c-203 -49 -339 -223 -352 -451 -16 -270 147 -488 393
-525 246 -37 465 121 519 375 20 95 19 157 -5 249 -25 98 -62 166 -125 232
-108 110 -277 157 -430 120z m235 -32 c150 -44 267 -178 301 -343 16 -79 6
-223 -20 -292 -97 -254 -376 -361 -614 -236 -102 53 -190 172 -217 293 -26
114 -8 269 42 368 24 48 109 139 155 168 90 55 246 74 353 42z"/>
<path d="M10608 4417 c-243 -83 -388 -347 -388 -705 0 -245 71 -446 204 -578
101 -100 206 -144 344 -144 127 0 242 50 338 146 71 73 122 165 160 289 23 78
27 113 31 255 4 139 2 180 -16 265 -51 248 -199 429 -396 481 -79 22 -199 17
-277 -9z m308 -27 c193 -67 324 -271 355 -557 31 -274 -40 -532 -187 -681 -91
-91 -169 -125 -296 -130 -78 -4 -110 0 -167 17 -178 54 -307 224 -357 472 -23
116 -15 373 15 479 68 233 214 387 398 420 65 12 172 3 239 -20z"/>
<path d="M9697 4265 c-50 -17 -85 -50 -108 -100 -16 -34 -18 -66 -18 -225 1
-205 6 -232 58 -286 86 -87 252 -60 302 49 16 37 19 67 19 238 0 185 -1 198
-23 240 -17 34 -35 50 -77 72 -59 30 -96 33 -153 12z m126 -86 c41 -32 49 -76
45 -267 l-3 -174 -33 -29 c-38 -34 -93 -39 -131 -13 -42 30 -51 71 -51 244 0
173 9 214 51 244 33 22 91 20 122 -5z"/>
<path d="M12242 3982 c-51 -81 -116 -184 -145 -230 l-53 -82 -73 105 c-65 93
-76 103 -93 94 -10 -6 -21 -16 -24 -24 -4 -10 145 -241 186 -288 6 -7 350 522
350 537 0 3 -12 12 -28 20 l-27 14 -93 -146z"/>
<path d="M13080 4049 c-210 -41 -378 -251 -431 -539 -18 -97 -15 -329 6 -425
76 -358 311 -556 608 -515 142 20 267 101 350 228 85 129 123 260 134 457 7
145 -7 265 -47 389 -97 302 -339 460 -620 405z m262 -40 c167 -56 277 -186
345 -406 26 -83 27 -99 27 -288 0 -175 -3 -210 -22 -279 -66 -236 -212 -395
-400 -435 -223 -47 -436 64 -541 281 -103 212 -120 524 -41 758 65 197 191
331 350 376 74 20 211 17 282 -7z"/>
<path d="M13055 3476 c-66 -29 -105 -102 -105 -193 0 -68 24 -125 69 -168 28
-26 40 -30 91 -30 51 0 63 4 91 30 110 104 85 315 -44 364 -37 14 -65 13 -102
-3z"/>
<path d="M22810 8140 c34 -47 142 -162 227 -241 200 -186 422 -314 638 -367
123 -31 145 -34 145 -18 0 9 -22 18 -66 25 -83 15 -231 64 -309 103 -195 99
-413 273 -561 448 -37 44 -73 80 -81 80 -11 0 -9 -7 7 -30z"/>
<path d="M22297 5809 c-198 -8 -237 -13 -237 -30 0 -6 39 -7 118 -2 205 14
594 8 725 -11 216 -31 357 -75 470 -148 26 -17 50 -28 54 -25 20 21 -103 93
-233 136 -155 52 -292 70 -629 85 -44 2 -165 0 -268 -5z"/>
<path d="M25826 5461 c-6 -8 193 -135 384 -244 116 -66 358 -197 365 -197 3 0
5 6 5 13 0 6 -42 34 -93 61 -141 75 -378 211 -518 298 -70 43 -129 78 -132 78
-3 0 -8 -4 -11 -9z"/>
<path d="M1345 3949 c-112 -133 -174 -214 -168 -220 6 -6 61 51 148 156 76 91
139 165 139 165 1 0 -1 -35 -2 -77 -2 -43 1 -95 8 -116 14 -47 65 -106 107
-123 69 -29 72 -7 3 29 -69 36 -95 90 -94 192 1 51 8 103 21 143 12 34 20 62
18 62 -1 0 -82 -95 -180 -211z"/>
<path d="M5275 885 c-225 -85 -539 -366 -865 -775 -44 -56 -80 -103 -80 -106
0 -2 6 -4 13 -4 8 0 45 39 83 87 118 150 201 243 337 381 202 206 373 336 518
392 58 23 76 35 62 43 -4 3 -35 -5 -68 -18z"/>
<path d="M7945 878 c4 -13 29 -69 56 -126 101 -215 254 -408 380 -480 31 -18
62 -32 68 -32 26 0 7 20 -46 50 -78 44 -198 166 -267 272 -56 86 -166 301
-166 326 0 6 -7 12 -16 12 -11 0 -14 -6 -9 -22z"/>
</g>
</svg>
