<?xml version="1.0" standalone="no"?>
<!DOCTYPE svg PUBLIC "-//W3C//DTD SVG 20010904//EN"
 "http://www.w3.org/TR/2001/REC-SVG-20010904/DTD/svg10.dtd">
<svg version="1.0" xmlns="http://www.w3.org/2000/svg"
 width="1564.000000pt" height="1512.000000pt" viewBox="0 0 1564.000000 1512.000000"
 preserveAspectRatio="xMidYMid meet">
<metadata>
Created by potrace 1.16, written by Peter Selinger 2001-2019
</metadata>
<g transform="translate(0.000000,1512.000000) scale(0.100000,-0.100000)"
fill="#000000" stroke="none">
<path d="M0 15110 c0 -7 2613 -10 7820 -10 5207 0 7820 3 7820 10 0 7 -2613
10 -7820 10 -5207 0 -7820 -3 -7820 -10z"/>
<path d="M8080 14520 c-1499 -54 -2813 -101 -2920 -104 -530 -15 -1578 -57
-1673 -66 -277 -27 -565 -140 -799 -312 -111 -81 -287 -261 -371 -378 -81
-114 -196 -340 -236 -465 -38 -119 -67 -255 -81 -385 -9 -76 -11 -439 -9
-1300 l4 -1195 -124 -225 c-68 -124 -132 -236 -141 -250 -9 -14 -36 -61 -60
-105 -148 -275 -199 -374 -279 -532 -49 -98 -110 -205 -135 -238 -43 -55 -203
-362 -288 -550 -20 -44 -52 -114 -71 -155 -19 -42 -38 -87 -42 -100 -7 -24
-163 -398 -188 -450 -45 -95 -150 -248 -394 -574 -134 -179 -138 -191 -126
-368 18 -267 8 -428 -38 -607 -18 -72 -53 -401 -64 -611 -3 -58 -7 -130 -10
-160 -2 -30 -7 -127 -11 -215 -3 -88 -8 -200 -11 -250 -6 -130 -16 -2111 -10
-2105 8 8 36 169 42 240 2 36 7 317 10 625 3 308 8 621 10 695 2 74 7 218 10
320 9 323 22 605 41 925 4 79 28 336 39 420 2 17 13 73 25 125 42 189 48 290
34 591 -5 118 -4 151 9 181 8 20 82 125 164 235 182 241 269 367 315 453 34
65 168 372 168 386 0 17 169 393 260 579 98 200 159 310 211 375 15 19 71 121
123 226 103 206 281 537 418 779 47 83 120 213 163 290 43 77 78 141 80 143 1
1 38 -22 82 -52 225 -150 431 -145 603 15 121 113 312 484 400 778 39 129 12
240 -69 280 -45 23 -194 53 -217 44 -11 -4 -15 -2 -12 7 8 25 100 53 178 53
64 1 83 -4 125 -27 112 -62 169 -137 286 -379 l19 -38 -54 -102 c-89 -172
-394 -630 -712 -1069 -61 -84 -141 -195 -178 -246 -80 -111 -322 -438 -371
-502 -19 -25 -49 -65 -67 -89 -101 -136 -141 -189 -220 -292 -47 -63 -137
-181 -200 -264 -192 -252 -361 -471 -452 -585 -108 -135 -285 -491 -403 -810
-144 -388 -151 -413 -108 -397 8 4 15 16 15 28 0 11 24 84 53 162 30 78 60
160 67 182 24 73 151 368 216 500 66 134 146 261 237 376 98 125 246 317 414
539 65 85 120 157 123 160 8 7 267 351 320 425 25 34 65 89 89 121 25 33 68
91 96 129 29 39 91 123 139 188 324 436 697 972 865 1241 30 47 57 86 60 86 4
0 18 -12 31 -27 162 -180 365 -222 542 -112 99 60 171 141 319 357 109 160
179 291 193 362 2 14 9 44 14 66 12 54 -1 135 -30 182 -35 57 -108 132 -152
154 -31 16 -53 19 -103 16 -35 -2 -63 -1 -63 3 0 4 27 17 60 29 149 56 280
-11 414 -213 203 -306 276 -770 186 -1194 -24 -117 -33 -136 -116 -264 -38
-59 -105 -164 -149 -233 -127 -199 -483 -735 -500 -752 -8 -9 -29 -37 -47 -62
-17 -26 -59 -76 -92 -112 -71 -75 -114 -138 -186 -270 -70 -129 -251 -499
-372 -760 -54 -118 -103 -223 -109 -233 -10 -18 -4 -70 10 -92 10 -16 31 -79
31 -94 0 -12 -91 -130 -123 -157 -6 -6 -39 -42 -72 -80 -73 -83 -148 -167
-156 -174 -3 -3 -46 -50 -95 -106 -94 -106 -445 -495 -454 -504 -47 -43 -186
-212 -218 -265 -45 -77 -135 -284 -203 -470 -24 -66 -83 -200 -131 -297 -88
-177 -138 -314 -223 -603 -25 -82 -58 -195 -74 -250 -38 -127 -82 -283 -115
-405 -14 -52 -39 -147 -56 -210 -18 -63 -43 -158 -57 -210 -72 -278 -85 -302
-212 -411 -77 -64 -276 -209 -290 -209 -4 0 -14 -7 -21 -15 -6 -8 -40 -30 -73
-50 -129 -75 -177 -106 -177 -115 0 -18 20 -10 98 37 244 146 440 288 544 393
72 73 78 82 101 161 32 105 73 259 143 524 14 55 38 145 54 200 16 55 43 152
60 215 130 466 221 733 309 905 67 129 102 208 143 325 66 187 184 446 239
526 17 25 45 60 62 78 18 17 48 50 67 72 35 39 70 78 231 255 48 51 102 112
120 134 34 41 78 90 134 150 17 18 57 63 90 101 223 253 362 399 380 402 12 2
28 15 37 30 9 15 59 81 112 147 53 66 124 155 158 199 56 70 100 123 271 325
26 31 60 73 76 94 134 174 475 532 611 642 41 33 84 68 94 78 22 19 46 23 46
7 0 -23 105 -153 158 -197 74 -60 127 -83 211 -90 108 -9 188 23 361 144 31
22 117 100 188 173 154 155 340 431 372 551 11 42 10 54 -15 130 -29 93 -45
117 -96 148 -41 25 -124 27 -184 6 -56 -21 -62 -19 -34 11 56 62 215 105 311
85 44 -9 63 -20 94 -54 22 -23 45 -53 51 -67 6 -14 16 -38 24 -55 16 -36 21
-289 8 -385 -28 -210 -68 -417 -110 -570 -28 -103 -110 -343 -120 -354 -5 -6
-9 -16 -9 -23 0 -27 -114 -260 -195 -398 -152 -262 -370 -525 -584 -705 -30
-25 -59 -50 -65 -55 -6 -6 -37 -31 -69 -55 -42 -31 -69 -63 -99 -114 -22 -39
-64 -109 -93 -156 -29 -47 -93 -157 -142 -245 -49 -88 -144 -257 -210 -375
-67 -118 -140 -251 -163 -295 -24 -44 -46 -84 -50 -90 -4 -5 -27 -46 -50 -90
-60 -112 -195 -322 -229 -355 -28 -29 -28 -30 -46 -180 -13 -109 -87 -685
-107 -830 -5 -41 -11 -86 -13 -100 -2 -14 -9 -65 -15 -115 -7 -49 -14 -102
-15 -116 -2 -15 -6 -39 -9 -55 -3 -16 -8 -51 -11 -79 -3 -27 -8 -57 -10 -65
-2 -8 -7 -35 -10 -60 -3 -25 -8 -61 -12 -80 -3 -19 -7 -42 -8 -50 -13 -111
-61 -343 -86 -420 l-20 -61 25 -92 c45 -171 68 -453 65 -827 -2 -332 -7 -405
-38 -510 -78 -265 -123 -427 -127 -463 -2 -15 -10 -51 -18 -80 -7 -29 -19 -83
-26 -122 -9 -51 -23 -87 -54 -135 -61 -95 -245 -278 -400 -395 -49 -38 -184
-138 -213 -160 -24 -17 -30 -35 -13 -35 19 0 203 137 350 261 82 69 167 152
247 243 l52 59 -4 -144 c-6 -207 12 -316 73 -438 54 -108 99 -146 337 -279 65
-37 213 -104 290 -132 28 -10 97 -37 155 -60 235 -92 230 -91 342 -88 l103 3
-100 33 c-100 33 -329 116 -480 174 -113 43 -332 150 -412 201 -37 23 -88 63
-113 88 -52 53 -63 74 -106 199 -28 82 -27 388 2 535 10 52 16 68 23 58 3 -5
1015 -40 2371 -82 1301 -39 2407 -75 2459 -79 l95 -7 -40 -20 c-21 -11 -40
-23 -42 -27 -2 -5 -12 -8 -22 -8 -23 0 -133 -74 -221 -149 -36 -31 -88 -75
-115 -98 -27 -22 -58 -49 -69 -60 -11 -10 -51 -45 -90 -78 -38 -33 -72 -62
-75 -65 -3 -3 -59 -52 -125 -110 -66 -58 -129 -113 -140 -123 -11 -10 -116
-100 -232 -200 l-213 -182 50 -3 50 -3 248 215 c136 118 256 223 268 233 30
25 165 146 178 158 12 11 206 178 241 207 11 9 58 49 105 88 49 41 121 88 170
112 47 23 105 57 130 76 l45 34 295 -6 c162 -4 367 -9 455 -11 88 -3 266 -7
395 -10 129 -4 321 -8 425 -11 105 -3 259 -6 342 -6 84 0 151 -3 148 -7 -2 -4
17 -6 43 -5 26 1 76 -4 112 -12 36 -8 74 -17 86 -19 11 -3 40 -18 63 -36 42
-30 43 -32 37 -72 -9 -62 -102 -241 -135 -261 -5 -3 -47 10 -94 29 -136 55
-411 124 -498 125 -37 0 -309 -85 -381 -120 -23 -11 -46 -20 -51 -20 -25 0
-244 -111 -327 -166 -191 -126 -245 -242 -176 -373 41 -79 88 -140 109 -141
17 0 24 15 9 22 -4 2 -22 21 -39 43 -79 101 -100 183 -63 254 57 112 234 230
510 341 58 23 119 46 135 52 17 5 39 14 50 18 31 12 74 27 138 46 68 20 152
15 292 -17 127 -30 365 -114 365 -130 0 -22 -275 -348 -438 -519 l-100 -105
43 -3 c46 -3 37 -11 210 173 59 62 232 268 265 315 13 19 30 40 36 45 45 38
196 315 208 383 6 35 -11 87 -37 113 -14 15 -2 17 131 22 83 3 193 15 253 27
59 11 243 31 410 45 337 27 384 34 514 76 196 62 368 172 523 334 225 234 356
509 393 825 9 82 10 1291 6 5553 -7 5412 -7 5448 -27 5547 -114 561 -546 990
-1113 1106 -67 13 -503 32 -1162 48 -146 4 -934 -22 -2925 -94z m3165 30 c845
-146 1478 -822 1565 -1670 14 -142 -5 -10097 -21 -10250 -21 -213 -80 -422
-171 -605 -188 -378 -506 -675 -882 -825 -180 -71 -427 -114 -624 -107 -64 2
-727 22 -1472 45 -2412 74 -4595 143 -4597 145 -1 2 -5 1327 -9 2945 -7 2658
-9 2941 -23 2929 -9 -7 -4 7 11 33 24 42 50 67 168 160 87 69 306 292 391 397
162 203 255 351 368 588 71 147 167 387 176 438 5 31 10 37 23 32 58 -23 165
-37 252 -32 349 18 638 298 705 684 74 423 -153 839 -530 969 -72 25 -94 28
-210 28 -116 0 -138 -3 -210 -28 -103 -35 -212 -103 -290 -180 -64 -64 -128
-150 -128 -173 0 -7 -4 -13 -9 -13 -4 0 -17 -9 -28 -20 -11 -11 -76 -69 -143
-128 -67 -59 -142 -125 -167 -148 -51 -47 -88 -80 -121 -110 -30 -25 -208
-179 -230 -197 -14 -13 -16 203 -22 2446 -4 1353 -6 2462 -4 2464 9 8 5819
212 5957 208 95 -2 201 -12 275 -25z m575 1 c351 -12 478 -39 700 -151 177
-90 334 -219 454 -375 139 -180 205 -320 264 -555 l26 -105 6 -2025 c3 -1114
5 -3584 5 -5490 -1 -3192 -2 -3471 -18 -3545 -29 -143 -67 -258 -121 -371
-187 -389 -505 -649 -893 -729 -65 -14 -392 -45 -463 -45 -16 0 13 19 85 54
536 261 901 790 964 1401 15 147 36 10145 21 10280 -41 370 -190 729 -420
1010 -122 149 -316 320 -480 423 -102 64 -290 151 -418 193 l-117 38 75 0 c41
0 190 -4 330 -8z m-6847 -1478 c4 -714 7 -1832 7 -2484 l0 -1187 -102 -88
c-56 -49 -123 -107 -148 -129 -57 -51 -104 -91 -160 -135 -110 -85 -395 -384
-590 -617 -56 -68 -103 -123 -106 -123 -2 0 -36 11 -76 24 -40 13 -92 27 -116
30 l-43 6 -20 -46 c-12 -25 -23 -43 -25 -41 -7 6 185 395 198 403 6 4 5 -4 -2
-16 -11 -20 -10 -21 12 -15 255 80 476 335 553 638 29 116 43 243 25 232 -7
-4 -4 5 6 21 19 32 176 275 293 456 42 65 87 136 101 159 14 24 42 68 62 99
61 93 105 297 115 530 12 301 -48 591 -169 819 -27 53 -60 114 -71 136 -33 63
-159 182 -225 213 -80 38 -192 37 -274 -1 -129 -61 -304 -239 -451 -457 -28
-41 -54 -77 -57 -80 -4 -3 -39 -54 -77 -114 -38 -61 -74 -111 -79 -113 -5 -1
-25 30 -44 69 -29 60 -85 145 -134 205 -32 40 -134 105 -192 123 -57 17 -74
18 -140 9 -41 -5 -91 -17 -112 -26 -79 -33 -181 -109 -277 -207 -103 -104
-157 -178 -241 -326 -26 -47 -54 -92 -61 -100 -6 -9 -67 -112 -134 -230 -122
-216 -137 -243 -179 -312 -24 -41 -39 -53 -18 -15 9 17 12 293 12 1232 1 1082
3 1219 17 1295 55 282 132 473 280 696 95 142 294 344 429 433 247 165 516
258 795 276 76 6 1090 45 1371 54 l41 1 6 -1297z m-658 -1234 c75 -20 135 -75
194 -179 21 -36 16 -152 -9 -224 -56 -162 -246 -453 -390 -597 -108 -108 -164
-134 -290 -134 -89 0 -100 2 -163 35 -68 34 -187 136 -187 159 0 51 280 471
442 663 155 184 197 224 268 256 79 36 80 36 135 21z m-1308 -399 c174 -28
220 -95 182 -263 -24 -110 -48 -168 -179 -443 -102 -214 -174 -315 -270 -384
-113 -81 -245 -97 -376 -44 -82 33 -172 84 -199 114 -23 25 -40 -11 152 325
214 375 273 462 387 578 84 85 113 106 159 117 46 11 74 11 144 0z m3488
-1035 c146 -31 304 -131 401 -253 61 -78 118 -190 150 -297 24 -81 27 -106 27
-240 0 -134 -3 -159 -27 -240 -32 -107 -89 -219 -150 -297 -127 -161 -339
-268 -531 -268 -62 0 -193 24 -206 37 -7 8 2 56 36 183 19 74 51 246 65 350 6
47 14 99 17 115 3 17 6 96 7 177 1 134 3 149 21 162 11 9 23 16 28 16 4 0 7
-121 7 -270 l0 -270 40 0 40 0 -2 318 -3 317 -32 3 c-23 2 -45 -5 -77 -27
l-44 -31 -19 52 c-27 76 -98 142 -177 167 -53 16 -75 18 -132 11 -38 -5 -84
-14 -103 -20 -19 -5 -37 -8 -39 -5 -2 2 18 30 44 61 177 207 421 299 659 249z
m-552 -488 c34 -22 87 -153 87 -215 0 -30 -84 -206 -114 -242 -8 -8 -30 -40
-51 -70 -149 -217 -373 -431 -539 -515 -75 -38 -84 -40 -170 -40 -76 0 -99 4
-139 24 -67 33 -146 108 -203 192 l-49 71 40 36 c23 21 104 92 180 158 77 67
149 130 160 140 11 11 74 66 140 124 66 58 127 112 135 120 57 58 180 155 230
180 137 69 227 80 293 37z m-1764 -709 c-54 -139 -165 -278 -283 -353 l-28
-19 33 55 c18 30 61 85 96 123 35 37 84 98 110 135 44 63 83 111 90 111 1 0
-7 -24 -18 -52z m-498 -990 c30 -6 66 -11 81 -12 22 -1 24 -4 15 -16 -7 -8
-45 -55 -86 -105 -146 -179 -260 -321 -288 -360 l-21 -30 -17 36 c-16 34 -16
37 8 95 14 32 53 118 87 189 34 72 70 149 81 173 17 37 23 42 53 42 18 0 58
-5 87 -12z m1317 -4008 l3 -2930 -108 5 c-123 6 -1038 34 -1185 36 -54 1 -98
2 -98 3 0 37 65 284 149 571 16 55 34 132 40 170 17 110 29 514 16 536 -3 4
18 26 48 47 281 208 351 616 154 909 -49 74 -131 154 -179 175 -21 10 -26 18
-23 38 2 14 7 46 10 73 l6 48 52 -28 c29 -15 91 -66 138 -114 76 -74 93 -99
137 -190 70 -145 86 -215 86 -374 0 -159 -16 -229 -86 -374 -42 -88 -62 -116
-131 -186 -45 -45 -108 -97 -139 -115 -32 -17 -58 -36 -58 -41 0 -16 16 -10
79 31 166 107 273 258 333 467 32 112 32 324 0 436 -61 212 -175 370 -342 473
l-60 37 5 49 c3 27 7 54 10 58 3 5 7 28 10 52 2 23 8 75 14 113 5 39 14 104
20 145 10 68 28 146 30 127 2 -14 120 73 175 128 117 116 206 276 253 453 23
85 26 117 27 262 0 183 -16 275 -74 413 -43 102 -46 106 -64 82 -30 -41 -23
-8 9 45 19 30 67 116 108 190 41 74 87 158 102 185 15 28 43 79 63 115 37 69
258 460 350 620 53 92 113 190 116 190 0 0 2 -1319 4 -2930z m-810 1498 c-13
-20 -12 -30 14 -111 41 -127 55 -268 40 -398 -14 -119 -62 -270 -113 -354 -44
-74 -128 -176 -163 -199 l-28 -18 6 39 c4 21 11 74 17 118 5 44 14 114 19 155
6 41 12 91 15 110 2 19 11 94 20 165 9 72 22 176 29 231 11 90 15 106 42 136
17 20 49 63 70 96 21 33 41 59 43 56 2 -2 -3 -13 -11 -26z m-323 -2018 c153
-105 257 -340 242 -545 -12 -160 -65 -289 -161 -392 -62 -67 -114 -109 -123
-100 -2 3 -7 41 -9 84 -14 290 -35 471 -73 620 -8 30 -8 50 0 70 15 39 59 241
59 270 0 30 12 29 65 -7z"/>
<path d="M10940 13605 c-245 -53 -452 -219 -573 -460 -278 -557 15 -1254 575
-1369 341 -70 689 115 861 459 219 439 90 986 -296 1253 -159 110 -382 156
-567 117z m278 -41 c244 -50 439 -211 557 -459 68 -142 89 -242 89 -415 0
-173 -21 -273 -89 -415 -118 -248 -313 -409 -557 -459 -136 -28 -273 -14 -408
43 -175 73 -323 221 -415 416 -68 142 -89 242 -89 415 0 119 4 161 23 235 26
102 91 246 144 319 185 255 468 377 745 320z"/>
<path d="M8555 13524 c-38 -8 -116 -37 -171 -64 -220 -107 -388 -327 -456
-597 -18 -71 -22 -117 -22 -238 0 -121 4 -167 22 -238 47 -187 137 -343 273
-471 136 -128 327 -206 504 -206 177 0 368 78 504 206 136 128 226 284 273
471 32 126 32 350 0 476 -47 187 -137 343 -273 471 -178 167 -423 238 -654
190z m283 -40 c84 -17 195 -64 266 -113 152 -105 279 -295 333 -499 23 -84 26
-117 26 -247 0 -130 -3 -163 -26 -247 -54 -204 -181 -394 -333 -499 -110 -76
-275 -129 -399 -129 -124 0 -289 53 -399 129 -152 105 -279 295 -333 499 -23
84 -26 117 -26 247 0 130 3 163 26 247 114 429 484 691 865 612z"/>
<path d="M6260 13454 c-152 -32 -263 -94 -380 -213 -124 -125 -195 -251 -243
-435 -30 -116 -30 -356 0 -472 48 -184 119 -310 243 -435 120 -121 228 -181
383 -213 129 -27 274 -14 396 34 190 74 372 262 457 469 54 133 68 214 68 381
0 167 -14 248 -68 381 -85 207 -267 395 -457 469 -120 48 -276 61 -399 34z
m342 -58 c116 -38 209 -99 302 -197 94 -99 152 -196 196 -326 84 -252 56 -544
-73 -772 -56 -100 -185 -234 -277 -289 -39 -23 -106 -55 -148 -69 -67 -23 -93
-26 -202 -26 -109 0 -135 3 -202 26 -118 40 -209 100 -302 198 -94 99 -152
196 -196 326 -84 252 -56 544 73 772 56 100 185 234 276 288 70 42 157 77 236
94 73 15 233 3 317 -25z"/>
<path d="M8535 10443 c-78 -16 -209 -74 -281 -124 -108 -74 -220 -212 -277
-340 -53 -121 -71 -214 -71 -364 0 -117 4 -154 24 -225 45 -160 114 -284 218
-388 231 -231 564 -295 849 -162 103 48 161 88 235 162 104 104 173 228 218
388 35 123 35 327 0 450 -30 108 -60 176 -115 261 -173 268 -498 407 -800 342z
m293 -39 c301 -62 541 -318 597 -639 49 -282 -38 -554 -241 -751 -125 -122
-323 -204 -494 -204 -171 0 -369 82 -494 204 -321 312 -342 809 -48 1155 60
70 147 135 247 182 140 66 284 84 433 53z"/>
<path d="M8642 9911 c-78 -20 -152 -100 -152 -166 0 -23 4 -25 40 -25 29 0 40
4 40 15 0 29 30 75 60 90 16 8 49 15 73 15 55 0 92 -27 108 -79 18 -62 -9
-106 -174 -280 -119 -124 -147 -160 -147 -183 l0 -28 210 0 210 0 0 35 0 35
-143 0 c-79 0 -147 3 -150 6 -4 4 48 63 114 132 156 161 191 232 158 319 -13
34 -55 80 -90 98 -34 18 -115 26 -157 16z"/>
<path d="M10895 10443 c-78 -16 -209 -74 -281 -124 -108 -74 -220 -212 -277
-340 -53 -121 -71 -214 -71 -364 0 -117 4 -154 24 -225 45 -160 114 -284 218
-388 231 -231 564 -295 849 -162 103 48 161 88 235 162 104 104 173 228 218
388 35 123 35 327 0 450 -30 108 -60 176 -115 261 -173 268 -498 407 -800 342z
m293 -39 c301 -62 541 -318 597 -639 45 -258 -22 -502 -193 -704 -125 -147
-350 -251 -542 -251 -141 0 -311 59 -435 152 -189 140 -315 402 -315 653 0
251 126 513 315 653 171 128 377 176 573 136z"/>
<path d="M11024 9921 c-43 -11 -99 -46 -117 -74 -8 -13 -20 -40 -25 -60 l-10
-37 39 0 c35 0 40 4 53 34 18 44 61 66 126 66 44 0 56 -5 81 -29 32 -32 38
-71 17 -116 -16 -35 -59 -56 -130 -63 l-59 -5 3 -31 c3 -31 3 -31 74 -36 43
-3 80 -12 97 -23 52 -34 62 -107 21 -156 -61 -73 -202 -58 -241 24 -15 31 -21
35 -56 35 -38 0 -39 -1 -32 -27 25 -103 124 -162 249 -149 68 7 125 36 157 80
18 23 24 48 27 97 4 62 2 68 -27 102 -18 20 -48 41 -68 48 l-37 12 38 19 c50
26 76 71 76 132 0 61 -25 104 -78 134 -43 24 -130 35 -178 23z"/>
<path d="M6225 8256 c-307 -71 -541 -333 -600 -673 -74 -423 153 -839 530
-969 72 -25 94 -28 210 -28 116 0 138 3 210 28 275 95 476 342 530 653 74 423
-156 843 -530 969 -98 33 -256 42 -350 20z m270 -41 c146 -31 304 -131 401
-253 61 -78 118 -190 150 -297 24 -81 27 -106 27 -240 0 -134 -3 -159 -27
-240 -32 -107 -89 -219 -150 -297 -127 -161 -339 -268 -531 -268 -192 0 -404
107 -531 268 -61 78 -118 190 -150 297 -24 81 -27 106 -27 240 0 134 3 159 27
240 70 232 210 405 401 497 136 65 270 82 410 53z"/>
<path d="M6221 7539 c-117 -183 -142 -227 -139 -253 l3 -31 158 -3 157 -3 0
-64 0 -65 40 0 40 0 0 65 0 65 46 0 45 0 -3 38 c-3 36 -4 37 -45 40 l-43 3 -2
212 -3 212 -56 3 -56 3 -142 -222z m176 -206 c-3 -2 -54 -2 -114 -1 l-110 3
111 170 111 170 3 -169 c1 -93 1 -171 -1 -173z"/>
<path d="M8535 8254 c-79 -17 -210 -76 -281 -125 -230 -158 -368 -456 -351
-754 13 -217 101 -419 245 -563 74 -74 132 -114 235 -162 383 -179 841 6 1020
411 53 121 71 214 71 364 0 150 -18 243 -71 364 -56 127 -169 266 -277 340
-61 42 -180 99 -248 117 -82 23 -259 27 -343 8z m293 -39 c122 -25 267 -101
356 -189 321 -312 342 -809 48 -1155 -125 -147 -350 -251 -542 -251 -171 0
-369 82 -494 204 -340 331 -340 871 0 1202 57 57 95 83 176 122 159 79 296 99
456 67z"/>
<path d="M8529 7758 c-5 -14 -34 -360 -30 -363 15 -16 66 -2 90 24 58 62 157
62 216 1 27 -28 30 -38 30 -95 0 -57 -3 -67 -30 -95 -71 -74 -193 -54 -232 38
-11 27 -18 32 -48 32 -42 0 -48 -9 -33 -51 31 -91 98 -134 209 -134 67 0 81 4
124 30 66 41 95 97 95 182 0 44 -6 76 -20 102 -51 100 -171 139 -273 87 l-47
-23 0 26 c0 14 3 56 7 94 l6 67 149 0 149 0 -3 38 -3 37 -177 3 c-98 1 -178 1
-179 0z"/>
<path d="M10935 8254 c-94 -20 -235 -90 -316 -157 -125 -104 -234 -282 -280
-457 -19 -70 -23 -111 -23 -235 0 -124 4 -165 23 -235 28 -108 95 -245 162
-334 135 -177 367 -296 579 -296 212 0 444 119 579 296 67 89 134 226 162 334
19 70 23 111 23 235 0 178 -20 268 -89 410 -163 333 -490 508 -820 439z m335
-54 c196 -65 352 -203 445 -395 68 -140 89 -233 89 -400 0 -167 -21 -260 -89
-400 -94 -193 -249 -330 -450 -396 -57 -19 -92 -24 -185 -24 -93 0 -128 5
-185 24 -201 66 -356 203 -450 396 -68 140 -89 233 -89 400 0 167 21 260 89
400 105 218 302 373 525 415 73 14 227 3 300 -20z"/>
<path d="M11031 7718 c-61 -14 -130 -84 -155 -158 -27 -81 -32 -211 -12 -290
33 -132 108 -195 231 -195 97 1 168 44 201 122 21 49 18 146 -6 193 -62 122
-241 144 -338 42 l-25 -27 7 45 c13 84 27 122 61 158 32 36 36 37 100 37 67 0
68 0 104 -42 29 -35 43 -43 70 -43 32 0 33 1 27 32 -9 47 -71 106 -130 123
-56 17 -72 17 -135 3z m151 -325 c97 -88 37 -246 -93 -246 -105 0 -174 121
-119 210 42 69 154 88 212 36z"/>
<path d="M6225 6096 c-307 -71 -541 -333 -600 -673 -74 -423 153 -839 530
-969 72 -25 94 -28 210 -28 116 0 138 3 210 28 275 95 476 342 530 653 74 423
-156 843 -530 969 -98 33 -256 42 -350 20z m270 -41 c146 -31 304 -130 401
-253 59 -74 129 -217 156 -317 17 -65 21 -108 21 -225 0 -129 -3 -155 -27
-235 -70 -232 -210 -405 -401 -497 -187 -89 -373 -89 -560 0 -191 92 -331 265
-401 497 -24 81 -27 106 -27 240 0 134 3 159 27 240 70 232 210 405 401 497
136 65 270 82 410 53z"/>
<path d="M6164 5566 c-3 -8 -4 -25 -2 -38 3 -23 4 -23 171 -26 l168 -2 -141
-274 c-77 -151 -140 -277 -140 -280 0 -4 19 -6 43 -4 l42 3 137 270 c118 232
137 277 138 318 l0 47 -205 0 c-169 0 -207 -3 -211 -14z"/>
<path d="M8535 6053 c-78 -16 -209 -74 -281 -124 -230 -158 -368 -456 -351
-754 13 -217 101 -419 245 -563 231 -231 564 -295 849 -162 103 48 161 88 235
162 104 104 173 228 218 388 35 123 35 327 0 450 -30 108 -60 176 -115 261
-173 268 -498 407 -800 342z m293 -39 c301 -62 541 -318 597 -639 45 -258 -22
-502 -193 -704 -125 -147 -350 -251 -542 -251 -141 0 -311 59 -435 152 -189
140 -315 402 -315 653 0 251 126 513 315 653 171 128 377 176 573 136z"/>
<path d="M8637 5536 c-29 -8 -62 -27 -83 -47 -70 -68 -68 -159 5 -221 l39 -33
-36 -20 c-89 -50 -108 -179 -39 -253 45 -48 95 -66 187 -66 99 0 151 21 196
80 58 76 35 193 -48 239 l-36 20 39 33 c75 64 76 157 0 225 -26 23 -56 38 -90
46 -63 13 -73 13 -134 -3z m162 -90 c30 -27 40 -66 27 -106 -28 -89 -195 -94
-231 -7 -21 52 0 106 50 128 33 15 132 5 154 -15z m-9 -271 c69 -35 86 -112
36 -164 -84 -87 -261 -41 -261 69 0 92 126 144 225 95z"/>
<path d="M10935 6044 c-94 -20 -235 -90 -316 -157 -125 -104 -234 -282 -280
-457 -19 -70 -23 -111 -23 -235 0 -178 20 -268 89 -410 88 -179 206 -301 370
-380 203 -99 407 -99 610 0 164 79 282 201 370 380 69 142 89 232 89 410 0
178 -20 268 -89 410 -163 333 -490 508 -820 439z m335 -54 c196 -65 352 -203
445 -395 68 -140 89 -233 89 -400 0 -167 -21 -260 -89 -400 -94 -193 -249
-330 -450 -396 -100 -33 -270 -33 -370 0 -201 66 -356 203 -450 396 -68 140
-89 233 -89 400 0 167 21 260 89 400 105 218 302 373 525 415 73 14 227 3 300
-20z"/>
<path d="M11019 5497 c-66 -19 -108 -53 -135 -111 -33 -70 -31 -130 4 -197 62
-120 225 -145 326 -51 l29 27 -6 -54 c-8 -65 -42 -138 -78 -164 -18 -13 -43
-19 -78 -19 -57 0 -96 19 -113 58 -9 20 -18 24 -55 24 -41 0 -44 -2 -38 -22
26 -85 126 -145 225 -136 97 10 174 77 205 180 21 71 20 240 -1 306 -41 126
-161 193 -285 159z m138 -87 c46 -28 67 -65 67 -119 0 -83 -54 -135 -139 -135
-85 0 -137 51 -138 134 -1 80 58 140 138 140 22 0 54 -9 72 -20z"/>
<path d="M6225 3926 c-307 -71 -541 -333 -600 -673 -74 -423 153 -839 530
-969 72 -25 94 -28 210 -28 116 0 138 3 210 28 275 95 476 342 530 653 74 423
-156 843 -530 969 -98 33 -256 42 -350 20z m270 -41 c146 -31 304 -131 401
-253 61 -78 118 -190 150 -297 24 -81 27 -106 27 -240 0 -134 -3 -159 -27
-240 -70 -232 -210 -405 -401 -497 -187 -89 -373 -89 -560 0 -191 92 -331 265
-401 497 -24 81 -27 106 -27 240 0 134 3 159 27 240 70 232 210 405 401 497
136 65 270 82 410 53z"/>
<path d="M6121 3361 l-44 -38 83 -94 c46 -52 92 -104 103 -116 l19 -21 -101
-110 -100 -109 43 -42 43 -42 99 106 99 105 90 -104 c50 -58 92 -105 95 -105
3 0 25 17 49 37 l44 38 -97 109 c-53 60 -96 113 -96 117 0 5 45 57 100 116
l99 109 -43 42 -43 42 -98 -105 c-53 -58 -100 -106 -104 -106 -3 0 -46 47 -96
105 -49 57 -92 104 -95 104 -3 0 -25 -17 -49 -38z"/>
<path d="M8535 3863 c-78 -16 -209 -74 -281 -124 -108 -74 -220 -212 -277
-340 -53 -121 -71 -214 -71 -364 0 -117 4 -154 24 -225 45 -160 114 -284 218
-388 231 -231 564 -295 849 -162 103 48 161 88 235 162 104 104 173 228 218
388 35 123 35 327 0 450 -30 108 -60 176 -115 261 -173 268 -498 407 -800 342z
m293 -39 c301 -62 541 -318 597 -639 45 -258 -22 -502 -193 -704 -125 -147
-350 -251 -542 -251 -141 0 -311 59 -435 152 -189 140 -315 402 -315 653 0
251 126 513 315 653 171 128 377 176 573 136z"/>
<path d="M8653 3350 c-114 -27 -183 -149 -183 -324 1 -182 81 -308 207 -323
72 -8 131 16 181 73 51 57 73 136 73 253 0 184 -62 295 -181 320 -56 12 -52
12 -97 1z m132 -103 c49 -49 69 -126 63 -247 -5 -107 -28 -165 -81 -204 -34
-25 -95 -26 -132 -2 -60 40 -96 185 -76 307 20 122 67 179 148 179 38 0 50 -5
78 -33z"/>
<path d="M10935 3824 c-94 -20 -235 -90 -316 -157 -125 -104 -234 -282 -280
-457 -19 -70 -23 -111 -23 -235 0 -178 20 -268 89 -410 88 -179 206 -301 370
-380 203 -99 407 -99 610 0 164 79 282 201 370 380 69 142 89 232 89 410 0
178 -20 268 -89 410 -163 333 -490 508 -820 439z m335 -54 c196 -65 352 -203
445 -395 68 -140 89 -233 89 -400 0 -167 -21 -260 -89 -400 -94 -193 -249
-330 -450 -396 -100 -33 -270 -33 -370 0 -201 66 -356 203 -450 396 -68 140
-89 233 -89 400 0 167 21 260 89 400 105 218 302 373 525 415 73 14 227 3 300
-20z"/>
<path d="M11181 3027 c-112 -122 -207 -223 -211 -225 -3 -1 -49 47 -101 108
-52 60 -96 110 -99 110 -3 0 -20 -12 -38 -27 l-32 -28 88 -100 c48 -55 106
-122 128 -149 33 -38 45 -46 58 -39 9 5 122 124 251 264 l235 254 -32 28 c-18
15 -35 27 -38 27 -3 0 -97 -100 -209 -223z"/>
<path d="M2975 12838 c-34 -12 -65 -36 -65 -51 0 -6 -8 -19 -17 -30 -16 -17
-18 -48 -21 -262 -3 -238 -3 -242 17 -248 29 -7 30 2 33 265 l3 228 33 30 c31
28 85 41 94 23 5 -13 65 -43 83 -43 12 0 15 5 9 22 -9 29 -41 55 -84 68 -41
12 -46 12 -85 -2z"/>
<path d="M3510 12828 c-19 -13 -45 -43 -58 -68 -22 -43 -22 -53 -20 -280 3
-227 4 -235 23 -235 19 0 20 8 25 230 5 243 8 256 56 294 36 29 76 26 115 -6
57 -48 63 -76 66 -308 2 -115 6 -220 9 -232 5 -26 29 -31 38 -7 10 26 7 397
-4 455 -18 98 -85 169 -167 176 -39 4 -55 0 -83 -19z"/>
<path d="M4005 12827 c-24 -14 -50 -40 -65 -67 -24 -43 -25 -53 -25 -195 1
-146 2 -151 29 -197 30 -53 64 -83 115 -104 45 -19 70 -18 116 6 22 11 43 20
49 20 5 0 6 -26 3 -60 -12 -136 -111 -180 -221 -99 -50 36 -56 36 -56 0 0 -36
54 -82 118 -101 74 -23 154 15 192 91 18 35 20 59 20 293 0 235 -2 258 -21
303 -50 117 -159 164 -254 110z m153 -64 c13 -10 35 -38 48 -63 21 -40 24 -58
24 -158 0 -85 -4 -123 -16 -148 -45 -94 -149 -100 -214 -12 -23 31 -25 42 -28
171 -3 136 -3 140 23 178 14 22 36 44 48 49 30 13 86 4 115 -17z"/>
<path d="M3232 12538 c3 -285 4 -293 23 -293 19 0 20 8 23 293 l2 292 -25 0
-25 0 2 -292z"/>
</g>
</svg>
