<?xml version="1.0" standalone="no"?>
<!DOCTYPE svg PUBLIC "-//W3C//DTD SVG 20010904//EN"
 "http://www.w3.org/TR/2001/REC-SVG-20010904/DTD/svg10.dtd">
<svg version="1.0" xmlns="http://www.w3.org/2000/svg"
 width="2070.000000pt" height="1168.000000pt" viewBox="0 0 2070.000000 1168.000000"
 preserveAspectRatio="xMidYMid meet">
<metadata>
Created by potrace 1.16, written by Peter Selinger 2001-2019
</metadata>
<g transform="translate(0.000000,1168.000000) scale(0.100000,-0.100000)"
fill="#000000" stroke="none">
<path d="M11440 11668 c0 -24 184 -319 226 -363 39 -40 45 -54 70 -157 35
-148 87 -324 112 -380 l20 -45 -25 -84 c-13 -46 -39 -169 -56 -272 l-31 -188
-180 -147 c-99 -81 -187 -152 -196 -159 -16 -12 -493 135 -1985 612 -552 176
-521 169 -745 170 -207 0 -305 -16 -488 -80 -189 -66 -290 -124 -386 -224
l-39 -40 -16 -241 c-9 -152 -19 -240 -25 -240 -6 0 -60 16 -121 35 -60 19
-113 35 -117 35 -14 0 -230 -422 -291 -570 -23 -57 -39 -115 -46 -175 -53
-436 -181 -2579 -356 -6003 -29 -558 -33 -705 -25 -755 135 -755 676 -1368
1577 -1785 385 -178 687 -266 1083 -314 140 -17 629 -17 785 0 474 53 929 186
1304 383 217 114 387 236 555 399 137 133 250 282 326 432 72 143 110 263 150
478 17 91 100 536 185 990 238 1276 623 3354 736 3980 56 311 106 569 111 574
4 6 125 1 310 -13 167 -12 362 -25 433 -28 128 -5 131 -6 220 -49 78 -37 341
-134 366 -134 5 0 9 6 9 13 0 7 -49 29 -117 51 -127 42 -268 99 -295 119 -15
12 -14 21 19 117 44 130 54 241 29 318 -20 60 -82 121 -143 140 -38 12 -385
44 -620 58 -80 4 -123 10 -123 18 0 48 82 532 91 535 6 2 85 41 176 87 180 92
242 113 426 143 132 22 419 51 504 51 40 0 53 4 53 15 0 19 -27 19 -243 0
-394 -35 -515 -64 -748 -180 -94 -47 -176 -84 -181 -83 -6 2 -17 28 -24 56
-51 198 -202 382 -379 463 -41 19 -74 39 -75 45 0 21 46 51 95 63 65 16 127
53 191 113 l50 47 135 -58 c171 -74 309 -126 380 -141 51 -11 64 -10 126 8
133 41 267 155 323 274 54 116 60 289 15 417 l-14 40 77 54 c42 30 85 64 96
75 11 13 41 25 75 32 31 6 66 13 79 16 12 2 22 11 22 20 0 10 -6 14 -17 10
-10 -3 -47 -10 -83 -17 -52 -10 -73 -20 -108 -51 -23 -21 -70 -57 -104 -79
-34 -22 -65 -43 -68 -48 -3 -4 -201 -128 -440 -275 -429 -264 -435 -268 -468
-256 -32 11 -34 10 -96 -48 -68 -63 -131 -99 -193 -109 -32 -5 -54 -22 -140
-114 -109 -113 -305 -293 -438 -400 -580 -467 -1135 -681 -1602 -618 -275 37
-469 142 -545 297 -32 65 -33 70 -33 192 1 110 4 134 28 205 55 158 161 340
262 453 50 56 311 277 680 577 121 98 238 195 260 215 22 20 166 128 320 240
485 353 541 398 805 647 328 308 483 450 598 546 51 42 88 77 83 77 -24 0
-217 -171 -631 -561 -162 -152 -317 -295 -345 -317 -104 -82 -818 -603 -822
-599 -10 11 59 382 84 451 8 22 16 66 18 96 12 177 18 240 36 380 34 272 69
411 125 495 32 48 39 78 9 39 -37 -48 -77 -148 -100 -249 -28 -125 -61 -369
-71 -527 -4 -60 -10 -108 -14 -108 -16 0 -78 204 -126 413 -16 68 -24 85 -64
127 -41 44 -220 328 -220 351 0 5 -7 9 -15 9 -8 0 -15 -6 -15 -12z m-2578
-1053 c47 -8 197 -51 334 -95 137 -45 670 -214 1184 -376 514 -163 939 -299
943 -303 4 -4 -84 -84 -195 -176 -112 -93 -235 -201 -274 -239 -70 -70 -180
-225 -225 -318 -13 -27 -28 -48 -33 -47 -30 1 -811 276 -809 284 1 6 4 42 8
80 l7 70 -968 322 c-532 177 -969 321 -971 319 -1 -1 -14 -78 -27 -170 -14
-92 -27 -170 -29 -173 -3 -2 -21 3 -42 11 -35 15 -37 18 -31 53 3 21 11 129
17 241 l12 203 69 64 c78 72 179 128 323 178 87 30 238 69 315 80 68 11 315 6
392 -8z m-903 -536 c50 -17 59 -23 48 -33 -10 -7 -19 -50 -26 -121 -7 -60 -15
-126 -18 -146 l-5 -36 -56 17 c-31 10 -58 22 -60 28 -2 6 6 75 17 152 12 78
21 146 21 151 0 13 8 12 79 -12z m326 -119 c195 -58 1471 -475 1483 -486 2 -1
1 -32 -3 -68 -6 -56 -14 -74 -56 -133 -27 -37 -54 -69 -59 -71 -11 -4 -1661
526 -1672 537 -6 5 18 258 28 289 2 8 12 11 21 8 10 -3 126 -37 258 -76z
m6244 28 c60 -226 29 -385 -98 -515 -48 -48 -141 -113 -162 -113 -7 0 -54 20
-106 46 -127 62 -259 95 -395 97 -59 1 -103 5 -99 9 10 12 835 518 842 518 4
0 11 -19 18 -42z m-5515 -617 c835 -269 1520 -492 1522 -494 2 -2 -1 -30 -7
-62 -6 -32 -9 -89 -7 -126 2 -39 -1 -69 -7 -69 -5 0 -206 61 -446 135 -241 74
-442 135 -447 135 -15 0 -32 -74 -32 -137 0 -154 101 -274 312 -372 45 -21
113 -46 149 -55 82 -20 217 -21 294 -1 59 15 173 66 227 101 l26 18 55 -50
c123 -113 332 -185 580 -200 190 -12 443 33 657 117 58 22 123 48 145 56 l40
16 645 -208 c355 -114 649 -211 654 -216 11 -10 -14 -59 -92 -178 -86 -131
-205 -276 -326 -396 -447 -444 -998 -704 -1688 -797 -216 -29 -661 -31 -897
-5 -754 85 -1627 361 -2177 688 -885 526 -1203 1305 -899 2199 53 157 170 401
188 395 7 -2 695 -225 1531 -494z m4891 107 c106 -17 310 -96 330 -127 9 -16
-74 -33 -122 -26 -56 8 -147 39 -307 105 -99 41 -125 55 -110 61 21 8 117 3
209 -13z m-6655 -52 c-19 -52 -59 -222 -75 -326 -23 -150 -22 -401 4 -550 117
-676 647 -1211 1566 -1577 545 -218 1108 -361 1645 -419 216 -24 635 -24 830
0 675 81 1214 317 1675 733 153 138 345 366 442 526 19 32 37 57 39 55 5 -6
-293 -2069 -482 -3328 -182 -1219 -346 -2252 -410 -2589 -41 -220 -88 -346
-189 -516 -139 -232 -367 -454 -649 -632 -154 -97 -481 -252 -587 -278 l-25
-6 28 168 c93 554 249 1601 497 3346 160 1129 167 1178 147 1172 -320 -91
-731 -161 -1096 -186 -216 -14 -632 -6 -825 16 -746 87 -1364 348 -1920 814
-239 200 -533 537 -657 753 -36 62 -48 71 -48 35 0 -141 -284 -4575 -294
-4584 -8 -8 -65 185 -87 297 l-21 108 16 329 c135 2687 277 5176 341 6003 30
380 40 440 91 562 26 60 48 107 50 105 3 -2 0 -16 -6 -31z m2944 -243 c220
-75 402 -137 403 -138 2 -1 -9 -31 -24 -68 -24 -62 -28 -66 -52 -60 -14 3
-192 59 -396 125 -203 65 -385 124 -402 129 -18 6 -33 15 -33 20 0 13 84 128
94 129 5 0 189 -61 410 -137z m3122 18 c179 -90 310 -263 359 -474 l15 -66
-90 -583 c-87 -570 -150 -925 -444 -2513 -297 -1612 -381 -2056 -384 -2047 -1
4 23 172 53 373 89 581 292 1963 444 3014 78 534 160 1071 185 1195 24 124 40
227 36 230 -5 3 -225 75 -489 159 -265 85 -481 157 -480 160 0 3 42 36 92 72
133 97 323 258 467 397 69 67 132 121 141 122 9 0 52 -18 95 -39z m-3241 -461
c237 -73 438 -136 448 -141 9 -6 17 -16 17 -25 0 -8 11 -37 25 -64 14 -27 25
-52 25 -54 0 -10 -136 -81 -199 -104 -91 -33 -223 -40 -323 -18 -102 23 -278
111 -350 175 -77 69 -118 152 -118 235 0 73 17 139 33 133 7 -2 206 -64 442
-137z m2866 -266 c351 -116 439 -149 438 -162 0 -9 -13 -80 -28 -157 -25 -124
-30 -140 -47 -137 -17 3 -785 249 -1087 349 l-108 35 118 67 c65 37 147 86
183 109 36 23 71 42 79 42 7 0 211 -66 452 -146z m514 -165 c9 -9 -41 -296
-55 -312 -4 -4 -19 -5 -34 -1 -18 4 -26 13 -26 28 0 22 46 266 56 294 4 14 40
8 59 -9z m440 -204 c440 -31 490 -39 556 -86 93 -66 102 -246 22 -446 l-25
-62 -46 5 c-26 2 -227 16 -447 30 -220 14 -401 26 -402 27 -2 3 77 519 82 535
5 15 5 15 260 -3z m-6679 -1542 l36 -57 -81 -1286 -82 -1286 26 -77 c130 -400
542 -801 1117 -1089 453 -227 841 -345 1328 -405 202 -24 692 -24 905 1 264
31 512 78 691 132 78 23 82 26 87 56 4 18 85 609 182 1313 97 704 178 1285
180 1291 4 12 93 40 101 32 4 -5 -367 -2643 -381 -2705 -4 -18 -23 -28 -98
-52 -601 -192 -1325 -241 -1937 -131 -532 96 -1132 358 -1575 687 -143 106
-369 324 -452 436 -115 157 -197 318 -233 464 l-20 78 80 1309 c44 720 80
1317 80 1327 0 29 6 24 46 -38z m150 -210 c111 -145 422 -462 554 -566 581
-459 1191 -700 1954 -772 185 -17 589 -20 787 -5 261 20 587 70 818 125 57 14
106 24 108 21 6 -6 -356 -2619 -364 -2626 -14 -12 -192 -58 -344 -89 -691
-142 -1419 -112 -2034 86 -389 125 -803 333 -1088 545 -145 108 -368 329 -450
444 -72 103 -148 247 -181 344 l-25 75 79 1245 c44 685 80 1257 80 1273 0 15
2 27 4 27 2 0 48 -57 102 -127z m-333 -2526 c43 -144 155 -336 289 -494 227
-268 593 -530 1027 -735 573 -271 1085 -380 1721 -365 407 9 797 72 1158 186
l93 29 -5 -36 c-3 -21 -49 -323 -102 -672 -116 -768 -190 -1220 -201 -1230
-17 -17 -292 -91 -457 -125 -298 -60 -412 -70 -771 -70 -250 0 -347 4 -445 18
-284 40 -514 99 -753 193 -179 70 -508 231 -652 319 -467 284 -797 626 -997
1031 l-59 121 63 947 c34 520 65 946 68 946 3 0 13 -28 23 -63z"/>
<path d="M8068 1419 c-28 -16 -39 -45 -54 -147 -12 -77 -12 -97 -2 -104 27
-17 27 -19 49 122 6 41 19 83 27 93 21 24 69 18 111 -14 32 -23 48 -21 38 6
-17 42 -124 71 -169 44z"/>
<path d="M8474 1288 c-12 -5 -27 -21 -32 -34 -15 -32 -36 -189 -28 -209 13
-35 33 6 45 93 13 97 16 104 49 121 43 23 123 -13 142 -64 5 -14 3 -60 -6
-121 -10 -67 -11 -101 -4 -108 7 -7 13 -7 21 1 14 14 41 192 33 218 -27 85
-144 140 -220 103z"/>
<path d="M8819 1175 c-33 -18 -39 -33 -46 -115 -4 -57 -2 -69 18 -99 30 -44
89 -74 145 -75 49 -1 56 -15 28 -54 -24 -34 -89 -30 -143 9 -24 17 -45 28 -48
25 -11 -11 8 -36 48 -63 33 -22 54 -28 97 -28 76 0 95 25 113 142 18 123 16
165 -9 201 -43 60 -145 89 -203 57z m115 -29 c46 -19 66 -52 66 -107 0 -65
-17 -108 -46 -115 -43 -11 -91 5 -120 39 -24 28 -26 37 -21 88 8 72 15 89 41
99 30 12 42 12 80 -4z"/>
<path d="M11440 9515 c-140 -39 -439 -181 -585 -277 -44 -28 -108 -80 -142
-114 l-63 -62 0 -84 c1 -96 14 -140 59 -197 64 -80 233 -185 425 -260 l78 -32
87 47 c138 74 338 211 417 286 101 96 114 127 114 264 -1 295 -100 446 -291
443 -30 0 -74 -7 -99 -14z m184 -6 c125 -35 202 -210 194 -439 -3 -75 -9 -114
-22 -138 -44 -84 -216 -220 -448 -353 -151 -87 -122 -86 -288 -14 -181 78
-315 174 -367 263 -22 38 -28 61 -31 131 -3 78 -1 89 20 117 78 105 360 274
637 384 154 61 223 72 305 49z"/>
</g>
</svg>
