<?xml version="1.0" standalone="no"?>
<!DOCTYPE svg PUBLIC "-//W3C//DTD SVG 20010904//EN"
 "http://www.w3.org/TR/2001/REC-SVG-20010904/DTD/svg10.dtd">
<svg version="1.0" xmlns="http://www.w3.org/2000/svg"
 preserveAspectRatio="xMidYMid meet">
<metadata>
Created by potrace 1.16, written by Peter Selinger 2001-2019
</metadata>
<g transform="translate(0.000000,702.000000) scale(0.100000,-0.100000)"
fill="#000000" stroke="none">
<path d="M4964 5976 l-34 -34 0 -126 c0 -105 2 -126 15 -126 12 0 15 20 15
118 1 122 5 138 47 160 35 19 63 14 94 -18 25 -24 30 -37 28 -67 -1 -21 -2
-73 -1 -115 2 -62 5 -78 17 -78 13 0 15 20 15 124 l0 125 -34 35 c-29 31 -39
36 -81 36 -40 0 -52 -5 -81 -34z"/>
<path d="M5271 5979 c-30 -30 -31 -34 -31 -119 0 -107 10 -133 61 -155 36 -17
52 -16 107 0 19 7 22 4 22 -23 0 -16 -8 -39 -17 -51 -24 -29 -85 -38 -117 -17
-30 19 -46 20 -46 3 0 -39 123 -62 168 -31 29 20 53 78 48 117 -3 18 -5 81 -5
140 -1 109 -1 109 -32 138 -25 24 -40 29 -79 29 -41 0 -53 -5 -79 -31z m134
-24 c22 -21 25 -33 25 -101 0 -95 -19 -124 -81 -124 -62 0 -79 27 -79 126 0
77 2 84 26 103 36 28 79 27 109 -4z"/>
<path d="M552 5078 c4 -10 159 -14 726 -16 l722 -2 -2 -553 -3 -552 -715 -5
c-393 -3 -717 -6 -720 -8 -3 -1 2 -7 10 -12 9 -6 283 -10 723 -10 l707 0 0
-527 c0 -291 -3 -544 -6 -563 l-6 -35 -705 3 c-474 1 -702 -1 -698 -8 4 -7
245 -10 709 -10 l704 0 -2 -557 -1 -558 -700 -3 c-446 -1 -703 -6 -709 -12 -7
-7 226 -10 690 -11 384 -1 706 0 714 1 8 1 20 6 25 11 8 8 11 957 4 1134 0 11
2 260 5 554 3 322 1 543 -5 558 -5 14 -7 29 -4 34 3 5 6 261 7 569 l0 560
1492 0 c1180 0 1495 -3 1505 -12 10 -11 12 -8 9 12 l-3 25 -2238 3 c-1790 2
-2238 0 -2235 -10z"/>
<path d="M3508 5008 c-3 -18 -3 -198 0 -401 2 -203 1 -433 -3 -513 l-7 -144
-718 0 c-413 0 -721 -4 -724 -9 -3 -5 1 -12 10 -15 8 -3 334 -6 724 -6 630 0
710 2 724 16 14 14 16 79 16 554 0 303 -4 541 -9 544 -5 3 -11 -9 -13 -26z"/>
<path d="M5019 5014 c-10 -33 -10 -1034 0 -1034 5 0 10 6 12 13 2 6 2 244 -1
527 -3 283 -8 505 -11 494z"/>
<path d="M836 4671 c-35 -36 -30 -65 10 -55 l25 7 -1 -129 c-2 -179 -4 -166
28 -162 l27 3 3 169 c2 116 -1 173 -9 182 -19 23 -53 16 -83 -15z"/>
<path d="M2315 4688 c-30 -16 -55 -50 -55 -75 0 -32 40 -30 68 2 26 30 57 32
72 6 17 -33 12 -43 -65 -141 -51 -65 -75 -104 -75 -122 l0 -28 104 0 c87 0
105 3 110 16 11 29 -13 44 -70 44 -50 0 -68 10 -44 25 6 4 33 36 60 72 43 56
50 73 50 110 0 37 -5 50 -31 74 -33 31 -86 39 -124 17z"/>
<path d="M3779 4671 c-36 -37 -39 -71 -6 -71 13 0 32 9 42 20 24 27 51 25 70
-4 20 -30 12 -49 -30 -69 -48 -23 -45 -44 10 -62 55 -19 43 -95 -14 -95 -15 0
-35 9 -44 21 -37 43 -73 3 -42 -45 37 -57 130 -56 175 2 24 30 27 98 4 130
-14 20 -14 24 0 44 45 63 -12 158 -94 158 -33 0 -48 -6 -71 -29z"/>
<path d="M6980 4645 c-125 -15 -250 -44 -380 -87 -111 -37 -348 -155 -439
-218 -139 -98 -312 -256 -384 -350 -23 -30 -45 -57 -48 -60 -13 -11 -83 -115
-126 -188 -81 -138 -193 -406 -193 -463 0 -11 -4 -27 -9 -37 -5 -9 -19 -69
-31 -133 -20 -106 -22 -137 -17 -350 4 -183 9 -254 25 -324 23 -107 51 -212
62 -240 5 -11 23 -56 40 -100 61 -154 153 -312 259 -448 265 -340 612 -564
1034 -667 165 -41 259 -52 429 -51 167 0 280 13 423 47 411 97 752 310 1024
639 69 82 85 106 165 237 225 372 309 863 221 1303 -136 681 -628 1223 -1293
1424 -251 76 -503 98 -762 66z m218 -205 c1 -102 -2 -230 -8 -285 -11 -104
-12 -107 -7 -164 2 -34 2 -35 -43 -37 -194 -10 -366 -65 -540 -173 -159 -99
-260 -197 -363 -352 -42 -64 -77 -119 -77 -122 0 -4 -8 -26 -19 -50 -59 -132
-81 -237 -88 -408 -9 -231 35 -422 144 -630 2 -3 -14 -11 -35 -17 -21 -6 -47
-21 -59 -32 -12 -11 -26 -20 -30 -20 -5 0 -31 -15 -58 -32 -28 -18 -61 -39
-75 -46 -14 -7 -39 -21 -57 -31 -17 -11 -67 -38 -110 -61 -43 -23 -82 -46 -88
-51 -5 -5 -16 -9 -24 -9 -8 0 -25 -9 -37 -21 l-22 -21 -7 24 c-4 12 -29 68
-55 123 -73 151 -123 314 -150 490 -13 83 -17 159 -15 310 1 110 6 217 9 238
8 46 34 169 45 217 22 90 130 348 172 410 9 14 27 44 40 67 104 184 331 421
536 556 236 156 497 257 753 291 131 18 192 23 235 22 l30 -1 3 -185z m250
169 c105 -13 305 -63 399 -100 91 -36 262 -120 328 -162 280 -176 516 -441
668 -750 61 -124 122 -291 133 -364 3 -27 10 -55 15 -64 5 -9 11 -48 14 -85 2
-38 7 -82 9 -99 2 -16 6 -101 7 -188 2 -126 0 -160 -11 -167 -16 -10 -23 -40
-9 -40 5 0 9 -10 9 -21 0 -31 -22 -99 -32 -99 -4 0 -7 -3 -7 -7 4 -22 -3 -116
-8 -105 -8 21 -23 13 -23 -14 0 -14 -9 -37 -20 -51 -12 -16 -18 -34 -14 -45 3
-11 0 -20 -10 -24 -11 -4 -16 -19 -16 -45 0 -40 -24 -79 -47 -79 -7 0 -13 -3
-14 -7 -5 -61 -9 -79 -23 -88 -11 -9 -12 -15 -4 -23 19 -19 -9 -43 -41 -35
-33 8 -143 61 -196 94 -22 14 -89 52 -150 84 -155 81 -175 94 -175 115 0 10 4
21 8 24 8 5 67 152 90 226 44 138 51 377 17 539 -75 360 -317 666 -645 819
-99 46 -215 81 -310 93 -141 18 -165 24 -162 39 6 26 2 553 -5 594 -9 60 1 62
225 35z m-124 -689 c153 -17 256 -49 406 -125 247 -127 459 -373 543 -632 101
-307 78 -619 -66 -898 -44 -84 -163 -240 -231 -303 -253 -231 -612 -341 -936
-288 -166 27 -347 94 -434 161 -18 14 -38 25 -44 25 -6 0 -12 3 -14 8 -1 4
-28 26 -59 50 -64 48 -171 163 -225 242 -42 62 -115 215 -139 292 -101 328
-51 691 132 961 29 43 53 82 53 86 0 9 134 139 200 193 126 102 331 195 486
218 38 6 94 14 124 19 30 5 68 7 84 5 16 -2 70 -9 120 -14z m-1073 -1782 c63
-94 213 -242 301 -299 450 -288 930 -277 1365 32 57 40 204 198 249 267 21 32
39 59 41 61 2 3 22 -6 46 -19 53 -30 237 -137 257 -150 8 -6 22 -13 30 -17 29
-13 145 -86 166 -105 21 -19 21 -20 4 -54 -10 -19 -24 -41 -30 -49 -7 -8 -10
-15 -7 -15 3 0 -4 -11 -16 -24 -12 -13 -47 -51 -77 -85 -30 -33 -60 -61 -66
-61 -7 0 -14 -10 -18 -23 -6 -25 -111 -129 -120 -120 -3 3 -15 -10 -26 -30
-15 -25 -26 -34 -39 -30 -10 3 -25 -3 -32 -12 -32 -39 -63 -65 -78 -65 -21 -1
-45 -20 -54 -42 -4 -12 -17 -18 -36 -18 -16 0 -36 -7 -45 -15 -8 -8 -19 -15
-24 -15 -6 0 -13 -7 -16 -16 -3 -8 -10 -13 -15 -10 -4 3 -45 -12 -89 -34 -45
-22 -84 -40 -88 -40 -4 0 -26 -9 -48 -20 -23 -11 -50 -21 -61 -22 -11 -2 -25
-7 -31 -11 -6 -3 -42 -9 -80 -12 -70 -6 -84 -8 -140 -20 -20 -5 -34 -3 -39 4
-5 9 -10 9 -21 0 -26 -21 -16 16 11 41 35 33 65 120 65 188 0 144 -133 272
-283 272 -109 0 -214 -76 -254 -183 -6 -18 -12 -61 -12 -97 -1 -72 24 -139 73
-197 32 -38 22 -47 -35 -34 -27 6 -49 6 -61 0 -10 -5 -18 -7 -18 -3 0 3 -6 1
-14 -5 -10 -9 -24 -8 -57 3 -46 14 -110 28 -144 31 -11 1 -38 7 -60 14 -37 12
-65 18 -170 40 -22 5 -35 9 -30 10 19 3 -20 21 -45 21 -30 1 -76 30 -46 30 9
0 14 5 11 10 -4 6 -11 7 -17 4 -6 -4 -13 -3 -17 2 -9 13 -49 34 -64 34 -26 0
-102 43 -135 76 -19 19 -38 34 -42 34 -5 0 -28 20 -51 45 -23 25 -48 45 -54
45 -16 0 -174 170 -235 253 -95 128 -109 168 -62 186 15 5 54 26 87 45 33 19
85 48 117 65 31 17 98 58 150 91 51 33 107 66 124 74 17 8 35 19 38 25 13 20
25 11 67 -51z m1044 -673 c105 -32 105 -32 105 -147 0 -112 -11 -143 -62 -181
-51 -37 -79 -42 -38 -7 19 17 37 30 41 30 3 0 14 15 23 33 14 25 17 52 14 127
l-3 95 -74 24 c-65 22 -80 23 -125 14 -29 -6 -69 -18 -89 -27 l-37 -15 0 -100
c0 -94 2 -101 27 -132 15 -18 48 -45 72 -61 25 -15 38 -28 30 -28 -24 0 -104
55 -127 88 -19 26 -22 44 -22 136 0 102 1 106 25 122 27 18 153 55 170 50 6
-2 37 -11 70 -21z"/>
<path d="M7035 4040 c-3 -5 -11 -7 -18 -4 -7 2 -35 0 -62 -6 -28 -5 -72 -12
-100 -15 -70 -6 -162 -44 -203 -83 -19 -18 -40 -31 -46 -30 -18 2 -66 -14 -66
-22 0 -5 -9 -11 -19 -15 -11 -3 -23 -15 -26 -26 -4 -10 -12 -19 -18 -19 -7 0
-28 -14 -47 -30 -29 -25 -32 -31 -20 -40 8 -5 17 -10 20 -10 5 0 54 41 108 89
12 12 27 21 33 21 13 0 118 59 125 71 3 5 14 9 25 9 10 0 19 5 19 10 0 6 17
10 38 10 21 0 42 4 48 10 5 5 27 12 49 15 21 2 43 9 49 15 5 5 28 10 51 10 23
0 50 7 61 15 10 8 28 15 39 15 l20 1 -20 9 c-27 12 -33 12 -40 0z"/>
<path d="M6357 3729 c-9 -10 -28 -19 -42 -19 -15 0 -29 -8 -36 -22 -7 -13 -18
-27 -25 -31 -8 -4 -14 -15 -14 -22 0 -24 -22 -17 -55 15 l-32 31 -12 -88 c-19
-129 -30 -149 -145 -247 l-30 -25 27 -6 c40 -11 47 -32 26 -79 -20 -46 -9 -77
16 -41 8 11 19 25 25 32 6 7 10 16 9 20 -3 13 25 73 33 73 4 0 8 5 8 10 0 6 5
16 10 23 18 21 62 91 90 142 27 48 54 82 148 183 23 25 42 49 42 53 0 17 -28
16 -43 -2z"/>
<path d="M7035 3833 c-99 -21 -223 -63 -285 -95 -117 -60 -136 -72 -214 -136
-154 -128 -264 -289 -330 -482 -38 -115 -50 -193 -49 -345 1 -162 25 -275 88
-411 136 -296 380 -501 700 -590 90 -25 116 -28 255 -28 158 0 205 7 350 54
338 108 626 447 691 810 17 95 17 274 0 365 -52 280 -219 536 -448 687 -113
75 -210 117 -349 153 -85 21 -120 25 -244 24 -80 -1 -154 -3 -165 -6z m410
-278 c326 -109 533 -373 561 -714 17 -205 -68 -438 -219 -597 -237 -251 -592
-322 -909 -182 -97 42 -148 78 -235 161 -115 111 -196 265 -227 436 -20 104
-20 145 -1 257 26 155 77 267 172 386 200 248 558 354 858 253z"/>
<path d="M5015 3961 c-7 -7 -265 -11 -735 -13 -475 -2 -725 -6 -725 -13 0 -7
250 -11 726 -12 626 -2 728 -1 739 12 14 17 10 41 -5 26z"/>
<path d="M3506 3883 c-3 -10 -5 -253 -5 -541 0 -287 -3 -527 -6 -532 -4 -7
-259 -10 -726 -10 -473 0 -719 -3 -719 -10 0 -7 249 -10 726 -10 680 0 728 1
740 18 11 14 13 123 14 554 0 487 -5 594 -24 531z"/>
<path d="M5011 3349 c-1 -363 2 -548 9 -544 13 8 14 1095 0 1095 -5 0 -9 -209
-9 -551z"/>
<path d="M878 3558 c-24 -18 -128 -245 -128 -279 0 -28 0 -28 72 -31 68 -3 73
-5 78 -28 8 -33 53 -36 58 -3 2 12 10 27 18 33 18 16 18 46 0 53 -10 4 -16 24
-18 54 -3 44 -5 48 -28 48 -23 0 -25 -4 -28 -47 l-3 -48 -40 0 c-21 0 -39 1
-39 3 0 2 23 49 50 105 28 56 51 112 53 124 2 26 -21 34 -45 16z"/>
<path d="M2271 3556 c-8 -9 -11 -46 -9 -103 3 -86 3 -88 29 -91 14 -2 31 4 39
12 15 19 51 21 68 4 7 -7 12 -33 12 -60 0 -37 -4 -50 -19 -58 -28 -14 -35 -13
-65 15 -31 29 -54 32 -63 9 -14 -36 48 -94 102 -94 32 0 63 16 87 44 13 15 17
39 18 89 0 63 -2 71 -30 99 -26 25 -36 29 -73 26 -41 -3 -42 -2 -42 27 l0 30
64 0 c48 0 66 4 74 17 8 12 7 21 -2 32 -18 22 -173 23 -190 2z"/>
<path d="M3804 3458 c-60 -120 -69 -165 -44 -213 17 -33 58 -55 101 -55 22 0
41 10 65 34 30 30 34 40 34 86 0 44 -4 56 -29 81 -16 16 -39 29 -50 29 -27 0
-26 9 4 61 33 58 33 89 0 89 -22 0 -32 -14 -81 -112z"/>
<path d="M3555 2790 c-4 -7 236 -10 709 -10 448 1 716 4 716 10 0 14 -1417 13
-1425 0z"/>
<path d="M3506 2749 c-3 -13 -4 -260 -3 -548 2 -409 5 -525 15 -529 9 -3 12
108 12 535 0 487 -6 623 -24 542z"/>
<path d="M5010 2243 c0 -274 0 -517 0 -540 l0 -43 -712 0 c-392 0 -719 -4
-727 -9 -8 -5 -9 -11 -3 -15 6 -3 335 -5 731 -4 l719 3 6 27 c4 19 10 972 6
1066 0 6 -5 12 -10 12 -7 0 -10 -164 -10 -497z"/>
<path d="M779 2424 c-6 -7 -9 -32 -7 -56 3 -38 6 -43 30 -46 21 -3 27 1 30 20
2 19 10 24 41 26 20 2 37 -1 37 -6 0 -4 -25 -71 -55 -147 -31 -80 -51 -143
-46 -148 5 -5 19 -7 32 -5 20 3 32 25 86 158 63 157 73 197 51 205 -7 2 -52 5
-101 8 -62 2 -91 0 -98 -9z"/>
<path d="M2324 2431 c-37 -16 -64 -60 -64 -105 0 -23 5 -47 11 -53 9 -9 7 -21
-6 -49 -38 -81 13 -164 101 -164 39 0 51 5 80 34 27 27 34 42 34 73 0 21 -7
49 -16 62 -13 17 -14 28 -6 44 20 43 22 59 8 90 -7 18 -22 40 -33 50 -24 21
-80 30 -109 18z"/>
<path d="M3815 2431 c-34 -15 -65 -56 -71 -93 -11 -63 37 -128 91 -128 19 0
20 4 -15 -69 -33 -67 -32 -81 5 -81 20 0 32 16 79 110 67 132 73 181 29 230
-30 33 -82 47 -118 31z"/>
<path d="M2050 1649 c0 -15 293 -20 856 -17 l591 3 5 -85 c6 -98 -1 -1012 -8
-1019 -9 -10 -1464 -6 -1464 4 0 6 -1 253 -3 549 -2 421 -5 540 -14 543 -10 4
-13 -110 -13 -546 l0 -551 -24 -6 c-14 -3 -177 -4 -363 -1 -318 4 -344 6 -435
29 -53 14 -101 21 -105 17 -4 -4 -64 -12 -133 -18 -134 -11 -179 -20 -181 -36
0 -5 19 -15 43 -22 24 -6 45 -12 48 -13 3 -1 8 -2 12 -1 4 0 23 -8 42 -18 54
-31 128 -50 154 -40 27 10 42 4 42 -17 0 -8 3 -14 8 -15 4 0 21 -3 37 -5 17
-3 38 -5 49 -5 10 0 29 -7 42 -15 14 -10 31 -13 45 -9 13 5 24 2 29 -6 7 -10
12 -10 26 2 11 9 15 9 10 2 -5 -9 1 -13 21 -14 70 -2 118 -10 161 -25 26 -9
66 -16 90 -15 23 1 42 -3 42 -9 0 -6 29 -9 71 -9 50 1 74 -3 80 -12 8 -12 11
-11 19 1 5 8 10 11 10 5 0 -11 29 -14 215 -18 342 -9 490 -19 514 -34 24 -15
96 -14 269 3 43 4 67 2 77 -6 11 -9 40 -11 108 -5 134 10 141 10 267 1 115 -9
589 -12 708 -5 35 2 65 2 67 -1 3 -5 543 -2 650 3 28 1 56 6 63 10 15 10 271
6 278 -4 2 -4 47 -7 99 -7 52 -1 100 -4 105 -7 6 -3 10 -4 10 0 0 3 -10 10
-22 15 -20 8 -18 9 15 9 20 1 37 -2 37 -6 0 -5 25 -9 55 -9 35 -1 52 2 48 9
-4 7 9 8 38 3 50 -9 509 -14 514 -6 2 3 148 6 325 8 177 1 327 5 333 9 6 3
142 6 303 5 186 -1 295 2 299 8 4 6 9 9 13 6 4 -2 83 -7 176 -10 124 -5 171
-4 176 5 4 6 36 13 71 15 35 2 75 7 89 11 37 10 100 10 100 0 0 -5 -19 -7 -42
-5 -25 1 -41 -1 -38 -7 13 -24 110 -4 110 23 0 8 9 11 25 8 14 -3 25 -1 25 4
0 4 23 8 50 8 28 1 55 4 61 8 6 3 15 0 20 -7 10 -17 50 -18 67 -2 15 15 66 18
58 4 -3 -5 5 -11 18 -13 16 -3 23 -1 20 7 -5 12 58 29 104 28 12 0 22 3 22 7
0 4 11 6 25 5 14 -2 25 1 25 6 0 5 11 7 24 3 13 -3 35 0 48 7 12 7 26 12 30
11 4 -1 22 5 40 12 18 8 64 17 103 21 38 4 85 14 104 22 32 14 36 13 48 -3 12
-16 13 -16 13 -1 0 10 8 17 20 17 11 0 20 7 20 15 0 8 6 15 13 15 27 0 344 30
384 36 24 3 45 10 48 14 5 8 -187 30 -272 30 -34 0 -65 4 -68 10 -3 5 -1 10 6
10 7 0 10 3 6 6 -3 3 -52 -7 -109 -23 l-103 -28 -2590 -1 c-1424 -1 -2597 1
-2607 4 -17 4 -18 33 -18 541 0 408 -3 544 -12 565 l-13 28 -727 -4 c-401 -1
-728 -6 -728 -9z"/>
<path d="M5016 1598 c-10 -41 -7 -1038 4 -1038 7 0 10 178 10 514 0 283 3 521
6 530 3 9 2 16 -4 16 -5 0 -12 -10 -16 -22z"/>
<path d="M3984 1434 c-7 -3 -49 -70 -95 -149 -46 -80 -87 -145 -91 -145 -3 0
-21 25 -38 55 -27 47 -36 55 -61 55 -36 0 -37 -17 -4 -70 14 -22 25 -43 25
-46 0 -4 12 -22 26 -41 21 -28 32 -34 57 -31 28 3 38 15 109 133 103 173 130
224 123 235 -6 10 -31 12 -51 4z"/>
<path d="M760 1415 c0 -8 18 -44 40 -80 22 -36 40 -72 40 -80 0 -8 -20 -48
-45 -88 -25 -41 -45 -80 -45 -86 0 -6 13 -11 29 -11 29 0 38 10 98 106 11 18
11 18 19 -1 4 -11 20 -39 36 -62 23 -34 35 -43 58 -43 17 0 30 4 30 9 0 5 -22
46 -50 90 -27 44 -50 83 -50 85 0 2 20 37 45 77 25 40 45 79 45 86 0 8 -12 13
-30 13 -26 0 -34 -8 -61 -55 -17 -30 -33 -55 -35 -55 -2 0 -18 25 -35 55 -26
47 -35 55 -60 55 -19 0 -29 -5 -29 -15z"/>
<path d="M2304 1285 c-37 -25 -46 -65 -42 -188 3 -130 12 -148 78 -168 31 -9
44 -8 75 7 55 26 67 63 63 197 -3 108 -3 109 -36 138 -25 22 -42 29 -75 29
-23 0 -52 -7 -63 -15z m94 -57 c8 -8 12 -48 12 -113 0 -104 -7 -125 -41 -125
-10 0 -25 7 -33 16 -22 22 -23 180 0 212 17 24 43 29 62 10z"/>
<path d="M1450 1183 c-55 -39 -80 -94 -66 -150 10 -39 67 -90 108 -98 46 -9
112 23 133 65 35 67 8 152 -58 183 -45 22 -86 22 -117 0z"/>
<path d="M4490 1193 c-23 -9 -60 -45 -76 -75 -20 -39 -17 -80 9 -119 62 -94
183 -85 228 17 16 36 18 50 10 82 -20 73 -104 119 -171 95z"/>
</g>
</svg>
