<?xml version="1.0" standalone="no"?>
<!DOCTYPE svg PUBLIC "-//W3C//DTD SVG 20010904//EN"
 "http://www.w3.org/TR/2001/REC-SVG-20010904/DTD/svg10.dtd">
<svg version="1.0" xmlns="http://www.w3.org/2000/svg"
 width="2070.000000pt" height="1168.000000pt" viewBox="0 0 2070.000000 1168.000000"
 preserveAspectRatio="xMidYMid meet">
<metadata>
Created by potrace 1.16, written by Peter Selinger 2001-2019
</metadata>
<g transform="translate(0.000000,1168.000000) scale(0.100000,-0.100000)"
fill="#000000" stroke="none">
<path d="M2938 9616 c-338 -60 -703 -312 -1014 -700 -113 -142 -1225 -1766
-1274 -1861 -127 -250 -185 -549 -160 -830 6 -71 80 -623 163 -1225 l152
-1095 225 -7 c124 -4 335 -12 470 -17 l245 -9 6639 -1036 c3652 -569 6641
-1035 6641 -1033 9 11 314 1150 311 1156 -3 4 -66 14 -141 21 -84 8 -135 17
-135 24 0 11 185 424 194 433 2 3 66 -3 141 -12 75 -9 138 -15 140 -13 1 2 17
46 34 99 31 94 32 104 66 600 l34 504 185 511 185 510 -45 395 c-95 846 -197
1635 -235 1821 -137 674 -760 1398 -1385 1607 -175 59 -459 82 -539 44 -33
-16 -353 -13 -5322 41 -3825 42 -5292 61 -5302 69 -19 17 -184 18 -273 3z
m226 -42 c9 -3 16 -10 16 -15 0 -10 -1243 -1794 -1270 -1822 -16 -18 -19 -18
-49 -2 -29 14 -46 15 -148 5 -193 -19 -353 -70 -508 -163 -92 -55 -251 -181
-297 -235 -15 -18 -29 -32 -32 -32 -10 0 1017 1487 1092 1580 93 117 302 326
402 402 252 190 480 282 717 287 34 0 68 -2 77 -5z m5386 -80 c2890 -31 5256
-58 5258 -59 2 -2 -171 -426 -384 -944 -244 -593 -392 -941 -400 -941 -8 0
-14 -7 -14 -15 0 -12 -19 -15 -109 -15 -60 0 -2513 43 -5452 95 -2939 52
-5384 95 -5432 95 -78 0 -88 2 -83 16 3 9 290 423 638 920 l631 904 46 0 c25
1 2411 -25 5301 -56z m5708 -53 c373 -93 751 -369 1056 -771 179 -236 321
-520 381 -758 39 -157 140 -916 249 -1882 l44 -385 -350 -970 c-192 -533 -353
-976 -357 -983 -4 -7 -19 99 -35 235 -96 865 -232 1839 -287 2058 -118 469
-539 1000 -1035 1307 -263 163 -549 260 -767 261 -67 0 -97 4 -94 11 251 623
774 1876 790 1890 20 17 35 18 172 13 101 -4 177 -13 233 -26z m-12400 -1760
c36 -19 211 -23 5547 -116 3031 -53 5543 -96 5583 -95 54 0 72 3 72 14 0 32
178 25 331 -14 322 -82 634 -268 928 -555 298 -290 504 -616 586 -928 58 -221
169 -1003 286 -2012 22 -198 45 -363 50 -366 17 -10 -3 -39 -27 -39 -24 0
-10963 290 -13224 350 -624 17 -1136 32 -1138 34 -6 6 -301 2154 -313 2279
-21 218 12 440 91 605 116 242 252 424 426 570 194 163 400 253 637 281 112
13 125 12 165 -8z m13728 -3544 c-10 -140 -23 -251 -32 -279 -21 -66 -63 -108
-106 -108 -45 0 -78 10 -78 23 0 26 225 634 228 616 2 -11 -4 -124 -12 -252z
m-11886 -313 l1346 -35 1219 -153 c671 -84 2914 -366 4985 -626 2071 -260
3768 -476 3773 -480 6 -5 -41 -656 -49 -668 -2 -4 -12837 1998 -12842 2003 -3
2 46 2 109 -1 63 -3 719 -21 1459 -40z m11857 -111 c-4 -62 -16 -124 -32 -173
l-25 -76 -135 15 c-85 9 -138 11 -144 5 -11 -11 -243 -526 -239 -529 2 -2 68
-10 147 -19 80 -9 146 -17 147 -19 1 -1 -57 -219 -129 -484 -73 -266 -133
-471 -135 -455 -1 15 8 151 22 302 l24 275 61 153 c34 84 61 157 61 161 0 4
-46 16 -102 25 -57 9 -106 20 -109 24 -3 4 0 86 7 182 7 96 13 203 13 238 1
59 0 62 -23 62 -38 0 -38 12 0 68 l35 52 137 0 137 0 29 83 c55 155 48 145
104 134 65 -14 98 -4 125 38 12 19 24 35 26 35 2 0 1 -44 -2 -97z m-9399 47
l714 -20 750 -91 c412 -50 751 -89 754 -87 2 3 8 32 12 66 5 34 11 64 14 67 6
6 2606 -60 2768 -70 52 -3 630 -64 1284 -135 654 -72 1190 -130 1192 -130 1 0
5 37 9 83 11 133 -19 120 253 112 131 -4 240 -10 243 -14 3 -3 -2 -100 -11
-216 -9 -115 -14 -213 -10 -217 3 -5 42 -13 87 -19 l81 -12 59 33 c32 18 84
50 116 72 50 34 57 43 57 72 0 40 24 124 43 151 14 18 17 18 195 0 100 -10
187 -22 193 -26 11 -6 5 -197 -15 -463 -1 -17 12 -22 103 -37 57 -10 104 -19
106 -21 1 -2 -25 -71 -58 -155 -58 -147 -61 -152 -86 -147 -14 2 -2195 276
-4846 609 -2651 333 -4827 607 -4835 609 -32 8 142 5 828 -14z m1701 -45 c283
-8 515 -16 517 -18 5 -4 -12 -106 -18 -112 -4 -4 -1115 126 -1183 139 -45 8
200 5 684 -9z m4875 -130 c499 -13 910 -25 911 -27 4 -3 -14 -170 -18 -174 -3
-3 -2081 223 -2112 229 -11 3 54 3 145 0 91 -2 574 -15 1074 -28z m1914 -51
c177 -4 322 -11 322 -15 0 -20 -66 -109 -80 -108 -8 0 -81 8 -163 18 -104 12
-150 14 -156 7 -25 -32 -51 -101 -57 -151 -7 -55 -8 -57 -63 -94 -31 -20 -78
-50 -106 -66 -48 -28 -51 -28 -123 -18 -40 6 -74 12 -76 14 -2 3 30 416 33
428 1 2 34 1 74 -3 39 -3 217 -8 395 -12z"/>
<path d="M7204 8810 c-127 -27 -179 -68 -285 -227 -49 -73 -89 -137 -89 -143
0 -5 14 -10 30 -10 32 0 37 6 178 210 73 106 118 133 220 133 41 0 82 -7 105
-17 68 -30 109 11 42 43 -35 17 -145 23 -201 11z"/>
<path d="M7602 8787 c-13 -6 -76 -92 -139 -190 -119 -182 -129 -211 -69 -191
37 13 270 362 254 381 -13 16 -17 16 -46 0z"/>
<path d="M8003 8779 c-65 -11 -145 -41 -190 -71 -32 -21 -213 -274 -213 -297
0 -18 18 -21 46 -9 17 8 59 61 115 145 79 118 95 136 142 160 46 25 63 28 150
28 95 0 99 -1 123 -28 30 -35 27 -43 -71 -189 -41 -62 -75 -119 -75 -125 0
-17 42 -17 62 0 22 17 157 222 175 265 13 32 13 37 -4 61 -40 54 -150 80 -260
60z"/>
<path d="M8611 8739 c-94 -24 -151 -61 -203 -130 -94 -125 -99 -176 -18 -216
36 -19 61 -23 130 -23 47 0 105 5 129 11 24 5 45 8 47 6 2 -2 -12 -22 -31 -45
-48 -55 -120 -82 -223 -82 -58 0 -87 5 -115 20 -44 24 -70 25 -87 5 -10 -12
-6 -18 21 -34 75 -46 197 -50 323 -10 105 32 140 65 254 235 63 96 102 164
102 180 0 39 -47 80 -108 93 -74 16 -135 13 -221 -10z m205 -39 c13 -5 29 -21
36 -34 9 -22 6 -33 -23 -83 -50 -85 -105 -135 -168 -156 -112 -36 -242 -13
-249 44 -5 43 92 178 148 206 80 41 184 50 256 23z"/>
<path d="M15458 6725 c-64 -165 -149 -381 -187 -480 l-71 -179 20 -166 c23
-180 38 -250 67 -308 17 -31 26 -38 55 -40 31 -3 40 2 75 42 74 84 125 285
158 626 15 149 19 661 7 755 l-7 49 -117 -299z m112 -275 c-23 -503 -97 -821
-200 -875 -27 -14 -31 -14 -49 4 -11 11 -27 44 -37 75 l-17 55 31 63 c65 133
89 304 72 508 l-12 135 94 240 c52 132 98 249 103 260 17 38 26 -241 15 -465z
m-221 -280 c1 -96 -5 -161 -18 -225 -17 -80 -53 -185 -64 -185 -2 0 -12 69
-22 153 l-18 153 53 138 c40 102 56 133 61 120 4 -11 8 -80 8 -154z"/>
<path d="M20360 6424 c-391 -193 -590 -287 -700 -329 -55 -21 -216 -60 -450
-110 -502 -106 -560 -120 -682 -176 -104 -47 -111 -49 -200 -49 -188 0 -338
-39 -618 -160 -285 -123 -300 -128 -435 -145 -489 -63 -994 -178 -1170 -266
-185 -92 -329 -266 -374 -454 -20 -80 -16 -238 9 -335 58 -235 253 -520 528
-773 253 -233 549 -374 962 -457 228 -46 372 -61 675 -67 458 -9 891 32 1326
128 184 40 235 58 354 129 139 82 177 97 279 110 104 13 704 120 814 145 16 4
22 13 22 31 0 22 -4 25 -22 21 -64 -16 -618 -117 -718 -132 -223 -31 -257 -43
-418 -142 -40 -25 -105 -56 -146 -69 -158 -50 -533 -116 -856 -151 -238 -26
-827 -26 -1025 0 -499 65 -851 195 -1126 415 -87 70 -267 250 -340 342 -292
364 -359 698 -194 970 67 111 212 229 335 273 31 11 98 18 215 22 503 18 774
79 751 169 -6 23 -4 24 97 35 133 16 237 49 487 158 113 49 223 95 245 101
101 29 200 44 325 51 134 7 136 7 238 54 115 53 158 64 667 171 198 42 387 86
420 97 106 38 251 105 662 307 351 172 402 200 403 220 0 12 -6 22 -12 22 -7
0 -155 -70 -328 -156z m-3225 -1074 c0 -21 -98 -67 -180 -84 -154 -32 -650
-69 -613 -46 25 15 279 75 489 114 197 37 304 43 304 16z"/>
<path d="M18840 5029 c0 -19 66 -235 121 -395 159 -466 340 -816 507 -977 70
-67 155 -117 202 -117 33 0 15 14 -37 28 -171 49 -376 351 -566 832 -62 158
-169 476 -197 588 -12 46 -30 71 -30 41z"/>
</g>
</svg>
